<?xml version="1.0" encoding="UTF-8"?>
<svg width="51px" height="51px" viewBox="0 0 51 51" version="1.1" xmlns="http://www.w3.org/2000/svg" xmlns:xlink="http://www.w3.org/1999/xlink">
    <!-- Generator: Sketch 46 (44423) - http://www.bohemiancoding.com/sketch -->
    <title>Page 1</title>
    <desc>Created with Sketch.</desc>
    <defs></defs>
    <g id="Page-1" stroke="none" stroke-width="1" fill="none" fill-rule="evenodd">
        <g id="Desktop-Home-Copy-6" transform="translate(-906.000000, -799.000000)" fill="#FF4F58">
            <g id="Group-4" transform="translate(410.000000, 225.000000)">
                <path d="M509,574 L509,578 L513.5,578 L518,578 L522.5,578 L527,578 L531.5,578 L536,578 L536,574 L509,574 Z M534,582 L538,582 L538,578 L534,578 L534,582 Z M504.666667,578 L504.666667,582.249433 L500.333333,582.249433 L500.333333,586.5 L496,586.5 L496,590.75 L496,594.999433 L496,599.25 L496,603.5 L496,607.749433 L496,612 L500.333333,612 L500.333333,607.749433 L500.333333,603.5 L500.333333,599.25 L500.333333,594.999433 L500.333333,590.75 L500.333333,586.5 L504.666667,586.5 L504.666667,582.249433 L509,582.249433 L509,578 L504.666667,578 Z M539,586 L543,586 L543,582 L539,582 L539,586 Z M543,587 L543,591.5 L543,595.9994 L543,600.5 L543,605 L543,609.4994 L543,614 L547,614 L547,587 L543,587 Z M522.5,587 L518,587 L518,591.5 L518,595.9994 L513.5,595.9994 L509,595.9994 L509,600.5 L509,605 L513.5,605 L518,605 L518,609.4994 L518,614 L522.5,614 L527,614 L527,609.4994 L527,605 L531.5,605 L536,605 L536,600.5 L536,595.9994 L531.5,595.9994 L527,595.9994 L527,591.5 L527,587 L522.5,587 Z M539,616 L543,616 L543,612 L539,612 L539,616 Z M500,616 L504,616 L504,612 L500,612 L500,616 Z M534,621 L538,621 L538,617 L534,617 L534,621 Z M504,621 L508,621 L508,617 L504,617 L504,621 Z M531.5,621 L527,621 L522.5,621 L518,621 L513.5,621 L509,621 L509,625 L513.5,625 L518,625 L522.5,625 L527,625 L531.5,625 L536,625 L536,621 L531.5,621 Z" id="Page-1"></path>
            </g>
        </g>
    </g>
</svg>