<?xml version="1.0" encoding="iso-8859-1"?>
<!-- Generator: Adobe Illustrator 18.0.0, SVG Export Plug-In . SVG Version: 6.00 Build 0)  -->
<!DOCTYPE svg PUBLIC "-//W3C//DTD SVG 1.1//EN" "http://www.w3.org/Graphics/SVG/1.1/DTD/svg11.dtd">
<svg version="1.1" id="Capa_1" xmlns="http://www.w3.org/2000/svg" xmlns:xlink="http://www.w3.org/1999/xlink" x="0px" y="0px"
	 viewBox="0 0 297 297" style="enable-background:new 0 0 297 297;" xml:space="preserve">
<path d="M287,69.22H10c-5.523,0-10,4.478-10,10V217.78c0,5.522,4.477,10,10,10h277c5.522,0,10-4.478,10-10V79.22
	C297,73.697,292.522,69.22,287,69.22z M148.5,137.318L52.344,89.22h192.313L148.5,137.318z M20,95.403l64.617,32.322L20,192.369
	V95.403z M103.469,137.156l40.558,20.287c1.408,0.704,2.94,1.057,4.474,1.057s3.065-0.352,4.474-1.057l40.557-20.287l70.597,70.624
	H32.872L103.469,137.156z M212.382,127.727L277,95.403v96.967L212.382,127.727z"/>
<g>
</g>
<g>
</g>
<g>
</g>
<g>
</g>
<g>
</g>
<g>
</g>
<g>
</g>
<g>
</g>
<g>
</g>
<g>
</g>
<g>
</g>
<g>
</g>
<g>
</g>
<g>
</g>
<g>
</g>
</svg>
