<?xml version="1.0" encoding="UTF-8" standalone="no"?>
<svg
   xmlns:dc="http://purl.org/dc/elements/1.1/"
   xmlns:cc="http://creativecommons.org/ns#"
   xmlns:rdf="http://www.w3.org/1999/02/22-rdf-syntax-ns#"
   xmlns:svg="http://www.w3.org/2000/svg"
   xmlns="http://www.w3.org/2000/svg"
   xmlns:sodipodi="http://sodipodi.sourceforge.net/DTD/sodipodi-0.dtd"
   xmlns:inkscape="http://www.inkscape.org/namespaces/inkscape"
   width="72px"
   height="72px"
   viewBox="0 0 72 72"
   version="1.1"
   id="svg21"
   sodipodi:docname="logo.svg"
   inkscape:version="0.92.4 (5da689c313, 2019-01-14)">
  <metadata
     id="metadata25">
    <rdf:RDF>
      <cc:Work
         rdf:about="">
        <dc:format>image/svg+xml</dc:format>
        <dc:type
           rdf:resource="http://purl.org/dc/dcmitype/StillImage" />
      </cc:Work>
    </rdf:RDF>
  </metadata>
  <sodipodi:namedview
     pagecolor="#ffffff"
     bordercolor="#666666"
     borderopacity="1"
     objecttolerance="10"
     gridtolerance="10"
     guidetolerance="10"
     inkscape:pageopacity="0"
     inkscape:pageshadow="2"
     inkscape:window-width="1366"
     inkscape:window-height="705"
     id="namedview23"
     showgrid="false"
     inkscape:zoom="4.6354778"
     inkscape:cx="60.042739"
     inkscape:cy="51.735427"
     inkscape:window-x="-8"
     inkscape:window-y="-8"
     inkscape:window-maximized="1"
     inkscape:current-layer="g19" />
  <!-- Generator: Sketch 46 (44423) - http://www.bohemiancoding.com/sketch -->
  <title
     id="title2">Group 3</title>
  <desc
     id="desc4">Created with Sketch.</desc>
  <defs
     id="defs6" />
  <g
     id="g19"
     stroke="none"
     stroke-width="1"
     fill="none"
     fill-rule="evenodd">
    <g
       id="g46"
       transform="matrix(0.13336105,0,0,0.13526543,2.0986054,0.8973184)">
      <polygon
         style="fill:#ff7149"
         points="120,512 256,60 0,60 0,512 "
         id="polygon2" />
      <polygon
         style="fill:#ff2b59"
         points="392,512 512,512 512,60 256,60 "
         id="polygon4" />
      <rect
         x="45"
         y="120"
         style="fill:#ffffff"
         width="30"
         height="30"
         id="rect6" />
      <rect
         x="45"
         y="180"
         style="fill:#ffffff"
         width="30"
         height="30"
         id="rect8" />
      <rect
         x="45"
         y="240"
         style="fill:#ffffff"
         width="30"
         height="30"
         id="rect10" />
      <rect
         x="45"
         y="300"
         style="fill:#ffffff"
         width="30"
         height="30"
         id="rect12" />
      <rect
         x="437"
         y="120"
         style="fill:#ffeac3"
         width="30"
         height="30"
         id="rect14" />
      <rect
         x="437"
         y="180"
         style="fill:#ffeac3"
         width="30"
         height="30"
         id="rect16" />
      <rect
         x="437"
         y="240"
         style="fill:#ffeac3"
         width="30"
         height="30"
         id="rect18" />
      <rect
         x="437"
         y="300"
         style="fill:#ffeac3"
         width="30"
         height="30"
         id="rect20" />
      <rect
         x="45"
         y="360"
         style="fill:#ffffff"
         width="30"
         height="30"
         id="rect22" />
      <rect
         x="437"
         y="360"
         style="fill:#ffeac3"
         width="30"
         height="30"
         id="rect24" />
      <polygon
         style="fill:#ff7149"
         points="392,512 392,0 256,0 196,256 332,512 "
         id="polygon26" />
      <polygon
         style="fill:#ff9441"
         points="256,0 120,0 120,512 180,512 256,452 "
         id="polygon28" />
      <polygon
         style="fill:#bfdcff"
         points="332,149 332,60 256,60 226,104.5 256,149 "
         id="polygon30" />
      <rect
         x="180"
         y="60"
         style="fill:#ffffff"
         width="76"
         height="89"
         id="rect32" />
      <polygon
         style="fill:#bfdcff"
         points="332,269 332,180 256,180 226,224.5 256,269 "
         id="polygon34" />
      <rect
         x="180"
         y="180"
         style="fill:#ffffff"
         width="76"
         height="89"
         id="rect36" />
      <polygon
         style="fill:#ffeac3"
         points="256,299 226,404 332,374 332,299 "
         id="polygon38" />
      <polygon
         style="fill:#ffffff"
         points="180,374 256,404 256,299 180,299 "
         id="polygon40" />
      <polygon
         style="fill:#09213d"
         points="332,374 256,374 216,443 256,512 332,512 "
         id="polygon42" />
      <rect
         x="180"
         y="374"
         style="fill:#233952"
         width="76"
         height="138"
         id="rect44" />
    </g>
    <text
       xml:space="preserve"
       style="font-style:normal;font-weight:normal;font-size:40px;line-height:1.25;font-family:sans-serif;letter-spacing:0px;word-spacing:0px;fill:#000000;fill-opacity:1;stroke:none"
       x="6.04037"
       y="46.328426"
       id="text64"><tspan
         sodipodi:role="line"
         id="tspan62"
         x="6.04037"
         y="46.328426"
         style="font-size:17.33333397px">BOSSY</tspan></text>
  </g>
</svg>
