<?xml version="1.0" encoding="utf-8"?>
<!-- Generator: Adobe Illustrator 21.1.0, SVG Export Plug-In . SVG Version: 6.00 Build 0)  -->
<svg version="1.1" id="Layer_1" xmlns="http://www.w3.org/2000/svg" xmlns:xlink="http://www.w3.org/1999/xlink" x="0px" y="0px"
	 viewBox="0 0 500 500" style="enable-background:new 0 0 500 500;" xml:space="preserve">
<style type="text/css">
	.st0{fill:#22205F;}
</style>
<g>
	<path class="st0" d="M99,223.2c4.3-4.1,6.5-10.1,6.5-18.1c0-6.7-2-11.9-6-15.8c-4-3.9-9.8-5.8-17.5-5.8H59.8v45.8h22.3
		C89.1,229.3,94.7,227.2,99,223.2z M63.6,187.3h18.5c6.3,0,11.2,1.5,14.7,4.4c3.5,2.9,5.2,7.4,5.2,13.4c0,7-1.9,12.1-5.7,15.4
		c-3.8,3.3-8.5,4.9-14.3,4.9H63.6V187.3z"/>
	<path class="st0" d="M106.2,234.8c4.1-2.8,7.4-6.5,9.8-11.1c2.4-4.6,3.7-10.8,3.7-18.6c0-12-3.4-21.1-10.2-27.4
		c-6.8-6.3-15.9-9.4-27.5-9.4H44.8V301h37.3c5.8,0,11-0.8,15.7-2.4c4.7-1.6,8.7-4,12-7.1c3.3-3.1,5.9-6.9,7.7-11.5
		c1.8-4.6,2.7-9.8,2.7-15.8c0-7.8-1.3-13.9-3.8-18.5C113.6,241.2,110.3,237.5,106.2,234.8z M107.1,288.6c-6.2,5.8-14.5,8.7-25.1,8.7
		H48.4V172.2h33.6c10.5,0,18.8,2.9,24.9,8.7c6,5.8,9.1,13.9,9.1,24.3c0,6.9-1.2,12.7-3.5,17.6c-2.3,4.8-6.3,8.9-12,12.1
		c5.7,3.1,9.7,7.1,12.2,12c2.4,4.9,3.7,10.7,3.7,17.5C116.4,274.7,113.3,282.8,107.1,288.6z"/>
	<path class="st0" d="M92.7,234.8c6.1-1.7,11-5.1,14.6-10.2c3.6-5.2,5.4-11.6,5.4-19.4c0-8.9-2.7-16-8.2-21.2
		c-5.4-5.3-12.9-7.9-22.5-7.9h-30v117.4h30c9.5,0,17.1-2.6,22.6-7.8c5.5-5.2,8.3-12.3,8.3-21.3c0-7.8-1.9-14.2-5.6-19.4
		C103.7,239.7,98.8,236.3,92.7,234.8z M56.1,179.7h26c8.7,0,15.3,2.3,20.1,7c4.7,4.7,7.1,10.8,7.1,18.5c0,3.9-0.6,7.5-1.7,10.9
		c-1.2,3.4-2.9,6.3-5.2,8.8c-2.3,2.5-5.1,4.5-8.5,5.9c-3.4,1.4-7.3,2.2-11.7,2.2h-26V179.7z M109.4,264.2c0,7.7-2.4,13.8-7.2,18.5
		c-4.8,4.7-11.5,7-20.1,7h-26v-53.1h26c4.4,0,8.4,0.7,11.7,2.1c3.4,1.4,6.2,3.3,8.6,5.8c2.3,2.5,4.1,5.4,5.2,8.8
		C108.8,256.7,109.4,260.3,109.4,264.2z"/>
	<path class="st0" d="M99.1,246.5c-4.5-3.9-10.2-5.9-17.1-5.9H59.8V286h22.3c7.7,0,13.5-2,17.6-5.9c4.1-3.9,6.2-9.2,6.2-15.9
		C105.9,256.4,103.6,250.4,99.1,246.5z M97,277.8c-3.6,3.1-8.6,4.6-14.9,4.6H63.6v-38.3h18.5c5.8,0,10.6,1.7,14.5,5
		c3.9,3.3,5.8,8.4,5.8,15.2C102.4,270.2,100.6,274.8,97,277.8z"/>
	<path class="st0" d="M194.9,176.4c-3.4-3.3-7.4-5.8-12-7.7c-4.6-1.8-9.5-2.7-14.7-2.7c-5.2,0-10.1,0.9-14.7,2.7
		c-4.6,1.8-8.6,4.4-12.1,7.7c-3.4,3.3-6.1,7.2-8.1,11.8c-1.9,4.6-2.9,9.6-2.9,15.1v62.9c0,5.4,1,10.4,2.9,15
		c1.9,4.6,4.6,8.5,8.1,11.8c3.4,3.3,7.5,5.9,12.1,7.7c4.6,1.8,9.5,2.7,14.7,2.7c5.2,0,10.1-0.9,14.7-2.7c4.6-1.8,8.6-4.4,12-7.7
		c3.4-3.3,6.1-7.3,8.1-11.8c2-4.5,3-9.5,3-15v-62.9c0-5.4-1-10.5-3-15.1C200.9,183.6,198.2,179.7,194.9,176.4z M202.1,266.2
		c0,5-1,9.5-2.9,13.7c-1.9,4.1-4.5,7.6-7.7,10.6c-3.2,2.9-6.8,5.2-10.8,6.7c-4.1,1.6-8.2,2.3-12.6,2.3c-4.3,0-8.5-0.8-12.7-2.3
		c-4.1-1.6-7.7-3.8-10.9-6.7c-3.2-2.9-5.7-6.5-7.7-10.6c-1.9-4.1-2.9-8.7-2.9-13.7v-62.9c0-5.1,1-9.7,2.9-13.8
		c1.9-4.1,4.5-7.6,7.7-10.5c3.2-2.9,6.8-5.1,10.9-6.7c4.1-1.6,8.3-2.4,12.7-2.4c4.3,0,8.5,0.8,12.6,2.4c4.1,1.6,7.7,3.9,10.8,6.7
		c3.2,2.9,5.7,6.4,7.7,10.5c1.9,4.1,2.9,8.7,2.9,13.8V266.2z"/>
	<path class="st0" d="M189,181.7c-2.8-2.6-6.1-4.6-9.7-6.1c-3.6-1.4-7.4-2.2-11.2-2.2c-3.9,0-7.6,0.7-11.2,2.2
		c-3.6,1.4-6.8,3.5-9.7,6.1c-2.8,2.6-5.1,5.7-6.7,9.4c-1.7,3.7-2.5,7.7-2.5,12.2v62.9c0,4.4,0.8,8.5,2.5,12.1
		c1.7,3.6,3.9,6.7,6.7,9.3c2.8,2.6,6,4.6,9.7,6.1c3.6,1.4,7.4,2.2,11.2,2.2c3.9,0,7.6-0.7,11.2-2.2c3.6-1.4,6.8-3.5,9.7-6.1
		c2.8-2.6,5.1-5.7,6.7-9.3c1.7-3.6,2.5-7.6,2.5-12.1v-62.9c0-4.4-0.8-8.5-2.5-12.2C194.1,187.5,191.9,184.3,189,181.7z M194.4,266.2
		c0,3.8-0.7,7.2-2,10.4c-1.3,3.2-3.2,5.9-5.5,8.2c-2.3,2.3-5.1,4.1-8.3,5.4c-3.2,1.3-6.7,1.9-10.5,1.9c-3.9,0-7.4-0.6-10.7-1.9
		c-3.2-1.3-6-3.1-8.3-5.4c-2.3-2.3-4.1-5.1-5.4-8.2c-1.3-3.2-1.9-6.6-1.9-10.4v-62.9c0-3.8,0.6-7.3,1.9-10.5c1.3-3.2,3.1-6,5.4-8.2
		c2.3-2.3,5.1-4.1,8.3-5.3c3.2-1.3,6.8-1.9,10.7-1.9c3.8,0,7.3,0.6,10.5,1.9c3.2,1.3,6,3.1,8.3,5.3c2.3,2.3,4.2,5,5.5,8.2
		c1.3,3.2,2,6.7,2,10.5V266.2z"/>
	<path class="st0" d="M184,187.1c-2.1-1.9-4.5-3.4-7.2-4.4c-2.7-1-5.6-1.5-8.6-1.5s-5.9,0.5-8.6,1.5c-2.7,1-5.1,2.5-7.2,4.4
		c-2.1,1.9-3.8,4.3-5,7c-1.2,2.7-1.8,5.8-1.8,9.2v62.9c0,3.4,0.6,6.5,1.8,9.2c1.2,2.7,2.9,5,5,6.9c2.1,1.9,4.5,3.3,7.2,4.3
		c2.7,1,5.6,1.5,8.6,1.5s5.9-0.5,8.6-1.5c2.7-1,5.1-2.4,7.2-4.3c2.1-1.9,3.8-4.2,5-6.9c1.2-2.7,1.8-5.8,1.8-9.2v-62.9
		c0-3.4-0.6-6.5-1.8-9.2C187.7,191.3,186.1,189,184,187.1z M187,266.2c0,1.4-0.1,2.7-0.3,4c0-0.4,0.1-0.9,0.1-1.3V263
		c0-8.8-7.2-15.9-15.9-15.9h-5.9c-7.9,0-14.4,5.8-15.7,13.3v-57.1c0-5.9,1.7-10.4,5.1-13.7c3.4-3.2,8-4.8,13.9-4.8
		c5.9,0,10.5,1.6,13.8,4.8c3.3,3.2,5,7.8,5,13.7V266.2z"/>
	<path class="st0" d="M235.3,184.6c2.4-2.3,5.2-4.1,8.6-5.4c3.3-1.3,7-1.9,11-1.9c3.7,0,7.1,0.7,10.2,2c3.2,1.3,5.9,3.2,8.3,5.7
		c2.4,2.4,4.2,5.3,5.6,8.6c1.3,3.3,2,6.8,2,10.6h3.7c-0.1-4.1-0.9-8-2.5-11.8c-1.6-3.8-3.7-7.1-6.3-10c-2.7-2.9-5.8-5.2-9.3-6.8
		c-3.6-1.7-7.4-2.5-11.5-2.5c-4.4,0-8.6,0.7-12.4,2.2c-3.8,1.5-7.1,3.6-9.9,6.4c-2.8,2.8-4.9,6.1-6.5,9.8c-1.6,3.8-2.3,7.9-2.3,12.3
		c0,7,1.7,12.7,5.2,17.2c3.5,4.5,8.2,7.9,14.1,10.1c2.4,1,4.9,1.7,7.3,2.2c2.4,0.5,4.9,1,7.2,1.6c2.4,0.6,4.7,1.2,7,2
		c2.3,0.8,4.5,2,6.6,3.7c7.2,5.7,10.8,13.7,10.8,24c0,3.8-0.8,7.4-2.2,10.7c-1.5,3.4-3.5,6.4-6,9c-2.5,2.6-5.4,4.7-8.7,6.2
		c-3.3,1.5-6.9,2.2-10.7,2.2c-3.9,0-7.5-0.7-10.7-2.1c-3.3-1.4-6.2-3.3-8.7-5.7c-2.5-2.4-4.4-5.3-5.8-8.6c-1.4-3.3-2.1-6.8-2.1-10.6
		h-3.8c0.2,4.2,1.2,8.2,2.9,11.9c1.7,3.7,4,7,6.8,9.8c2.8,2.8,6.1,5.1,9.8,6.7c3.7,1.6,7.6,2.4,11.6,2.4c4.3,0,8.4-0.9,12.2-2.6
		c3.8-1.7,7.2-4.1,10.2-7c2.9-2.9,5.2-6.3,6.9-10.2c1.7-3.8,2.5-7.9,2.5-12.2c0-6-1.1-11.2-3.2-15.6c-2.1-4.4-5.3-8.2-9.5-11.4
		c-2.2-1.7-4.5-3-6.8-3.9c-2.3-0.9-4.7-1.7-7.1-2.3c-2.4-0.6-4.8-1.2-7.3-1.7c-2.5-0.5-5-1.2-7.4-2.1c-5.4-1.9-9.7-4.8-12.8-8.7
		c-3.1-3.9-4.7-9-4.7-15.1c0-4,0.7-7.6,2.1-10.8C231,189.8,232.9,187,235.3,184.6z"/>
	<path class="st0" d="M223.1,225.7c2,2.7,4.4,5.1,7.2,7c2.8,1.9,6.1,3.6,9.7,5.1c1.7,0.7,3.6,1.2,5.9,1.7c2.3,0.4,4.6,0.9,7.1,1.5
		c2.4,0.6,4.9,1.2,7.2,2c2.4,0.8,4.6,1.8,6.6,3.2c3,2.2,5.1,4.8,6.3,7.7c1.2,2.9,1.8,6.5,1.8,10.8c0,2.9-0.5,5.6-1.5,8
		c-1,2.4-2.4,4.6-4.2,6.4c-1.8,1.8-4,3.3-6.5,4.3c-2.5,1.1-5.2,1.6-8.2,1.6c-6.2,0-11-1.7-14.5-5.2c-3.4-3.4-5.2-8.1-5.2-14h-4
		c0,3.2,0.7,6.2,2.1,9c1.4,2.8,3.2,5.2,5.4,7.3c2.2,2.1,4.7,3.8,7.6,5c2.8,1.2,5.7,1.8,8.6,1.8c3.7,0,7-0.6,9.9-1.9
		c2.9-1.3,5.5-3,7.7-5.2c2.2-2.2,3.8-4.8,5-7.7c1.2-2.9,1.7-6.1,1.7-9.4c0-4.8-0.7-8.9-2.2-12.4c-1.5-3.5-3.9-6.4-7.1-8.7
		c-2.1-1.6-4.3-2.7-6.7-3.6c-2.3-0.8-4.7-1.5-7.1-2c-2.4-0.5-4.8-0.9-7.2-1.3c-2.4-0.4-4.7-1-6.9-1.9c-6.7-2.6-11.8-6.3-15.6-11.2
		c-3.7-4.9-5.6-11.5-5.6-19.6c0-5,0.9-9.6,2.6-13.7c1.7-4.2,4.1-7.7,7.2-10.7c3.1-3,6.8-5.4,11-7.1c4.2-1.7,8.8-2.6,13.7-2.6
		c4.7,0,9,0.9,13.1,2.7c4.1,1.8,7.5,4.3,10.5,7.4c2.9,3.1,5.3,6.8,7,11c1.7,4.2,2.6,8.7,2.6,13.3h4c0-5.4-1-10.5-2.9-15.2
		c-1.9-4.7-4.6-8.7-8-12.2c-3.4-3.4-7.3-6.1-11.8-8c-4.5-1.9-9.3-2.8-14.4-2.8c-5.3,0-10.3,0.9-15,2.7c-4.7,1.8-8.7,4.4-12.2,7.7
		c-3.4,3.3-6.1,7.3-8.1,12c-1.9,4.7-2.9,9.8-2.9,15.3c0,4.8,0.5,8.9,1.6,12.5C219.6,219.8,221.1,223,223.1,225.7z"/>
	<path class="st0" d="M278,232.3c-2.3-1.8-4.7-3.2-7.2-4.2c-2.4-1.1-4.9-1.9-7.4-2.7c-2.5-0.7-5-1.4-7.6-1.9c-2.6-0.6-5.1-1.2-7.5-2
		c-4.8-1.6-8.2-3.7-10.3-6.5c-2.1-2.8-3.2-6.5-3.2-11.2c0-5.9,1.7-10.5,5.2-13.8c3.4-3.3,8.4-5,15-5c5.7,0,10.1,1.7,13.2,5.2
		c3.2,3.4,4.7,8.1,4.7,14h4c-0.4-6.7-2.6-12.2-6.4-16.7c-3.8-4.5-9-6.7-15.6-6.7c-3.7,0-7,0.6-9.9,1.8c-2.9,1.2-5.4,2.9-7.5,5
		c-2.1,2.1-3.6,4.6-4.7,7.4c-1.1,2.8-1.7,5.8-1.7,8.9c0,10.3,5.2,17.3,15.7,21c2.4,0.9,4.9,1.6,7.3,2.1c2.4,0.5,4.9,1.1,7.3,1.7
		c2.4,0.6,4.8,1.4,7.2,2.4c2.3,1,4.7,2.4,7,4.2c4.6,3.6,8,7.7,10.3,12.5c2.3,4.8,3.5,10.4,3.5,17c0,4.8-0.9,9.3-2.7,13.6
		c-1.8,4.3-4.2,8-7.3,11.2c-3.1,3.2-6.8,5.8-11.1,7.7c-4.3,1.9-8.9,2.8-13.9,2.8c-4.7,0-9.1-0.9-13.2-2.6c-4.2-1.7-7.9-4.1-11.1-7.2
		c-3.2-3.1-5.8-6.7-7.7-10.8c-1.9-4.1-2.9-8.6-3-13.5h-3.7c0.2,5.4,1.4,10.5,3.6,15.1c2.2,4.6,5,8.6,8.5,12c3.5,3.4,7.5,6,12.1,7.9
		c4.5,1.9,9.4,2.8,14.5,2.8c5.4,0,10.5-1,15.2-3.1c4.7-2.1,8.8-4.9,12.2-8.4c3.4-3.6,6.2-7.7,8.2-12.4c2-4.7,3-9.7,3-15.1
		c0-7.4-1.2-13.7-3.7-18.8C287.1,240.6,283.2,236.2,278,232.3z"/>
	<path class="st0" d="M364.9,232.3c-2.3-1.8-4.7-3.2-7.2-4.2c-2.4-1.1-4.9-1.9-7.4-2.7c-2.5-0.7-5-1.4-7.6-1.9
		c-2.6-0.6-5.1-1.2-7.5-2c-4.8-1.6-8.2-3.7-10.3-6.5c-2.1-2.8-3.2-6.5-3.2-11.2c0-5.9,1.7-10.5,5.2-13.8c3.4-3.3,8.4-5,15-5
		c5.7,0,10.1,1.7,13.2,5.2c3.2,3.4,4.7,8.1,4.7,14h4c-0.4-6.7-2.6-12.2-6.4-16.7c-3.8-4.5-9-6.7-15.6-6.7c-3.7,0-7,0.6-9.9,1.8
		c-2.9,1.2-5.4,2.9-7.5,5c-2.1,2.1-3.6,4.6-4.7,7.4c-1.1,2.8-1.7,5.8-1.7,8.9c0,10.3,5.2,17.3,15.7,21c2.4,0.9,4.9,1.6,7.3,2.1
		c2.4,0.5,4.9,1.1,7.3,1.7c2.4,0.6,4.8,1.4,7.2,2.4c2.3,1,4.7,2.4,7,4.2c4.6,3.6,8,7.7,10.3,12.5c2.3,4.8,3.5,10.4,3.5,17
		c0,4.8-0.9,9.3-2.7,13.6c-1.8,4.3-4.2,8-7.3,11.2c-3.1,3.2-6.8,5.8-11.1,7.7c-4.3,1.9-8.9,2.8-13.9,2.8c-4.7,0-9.1-0.9-13.2-2.6
		c-4.2-1.7-7.9-4.1-11.1-7.2c-3.2-3.1-5.8-6.7-7.7-10.8c-1.9-4.1-2.9-8.6-3-13.5h-3.7c0.2,5.4,1.4,10.5,3.6,15.1
		c2.2,4.6,5,8.6,8.5,12c3.5,3.4,7.5,6,12.1,7.9c4.6,1.9,9.4,2.8,14.5,2.8c5.4,0,10.5-1,15.2-3.1c4.7-2.1,8.8-4.9,12.2-8.4
		c3.4-3.6,6.2-7.7,8.2-12.4c2-4.7,3-9.7,3-15.1c0-7.4-1.2-13.7-3.7-18.8C374,240.6,370.2,236.2,364.9,232.3z"/>
	<path class="st0" d="M322.2,184.6c2.4-2.3,5.2-4.1,8.6-5.4c3.3-1.3,7-1.9,11-1.9c3.7,0,7.1,0.7,10.2,2c3.2,1.3,5.9,3.2,8.3,5.7
		c2.4,2.4,4.2,5.3,5.6,8.6c1.3,3.3,2,6.8,2,10.6h3.7c-0.1-4.1-0.9-8-2.5-11.8c-1.6-3.8-3.7-7.1-6.3-10c-2.7-2.9-5.8-5.2-9.3-6.8
		c-3.6-1.7-7.4-2.5-11.5-2.5c-4.4,0-8.6,0.7-12.4,2.2c-3.8,1.5-7.1,3.6-9.9,6.4c-2.8,2.8-4.9,6.1-6.5,9.8c-1.6,3.8-2.3,7.9-2.3,12.3
		c0,7,1.7,12.7,5.2,17.2s8.2,7.9,14.1,10.1c2.4,1,4.9,1.7,7.3,2.2c2.4,0.5,4.9,1,7.2,1.6c2.4,0.6,4.7,1.2,7,2c2.3,0.8,4.5,2,6.6,3.7
		c7.2,5.7,10.8,13.7,10.8,24c0,3.8-0.8,7.4-2.2,10.7c-1.5,3.4-3.5,6.4-6,9c-2.5,2.6-5.4,4.7-8.7,6.2c-3.3,1.5-6.9,2.2-10.7,2.2
		c-3.9,0-7.5-0.7-10.7-2.1c-3.3-1.4-6.2-3.3-8.7-5.7c-2.5-2.4-4.4-5.3-5.8-8.6c-1.4-3.3-2.1-6.8-2.1-10.6h-3.8
		c0.2,4.2,1.2,8.2,2.9,11.9c1.7,3.7,4,7,6.8,9.8s6.1,5.1,9.8,6.7c3.7,1.6,7.6,2.4,11.6,2.4c4.3,0,8.4-0.9,12.2-2.6
		c3.8-1.7,7.2-4.1,10.2-7c2.9-2.9,5.2-6.3,6.9-10.2c1.7-3.8,2.5-7.9,2.5-12.2c0-6-1.1-11.2-3.2-15.6c-2.1-4.4-5.3-8.2-9.5-11.4
		c-2.2-1.7-4.5-3-6.8-3.9c-2.3-0.9-4.7-1.7-7.1-2.3c-2.4-0.6-4.8-1.2-7.3-1.7c-2.5-0.5-5-1.2-7.4-2.1c-5.4-1.9-9.7-4.8-12.8-8.7
		c-3.1-3.9-4.7-9-4.7-15.1c0-4,0.7-7.6,2.1-10.8C318,189.8,319.8,187,322.2,184.6z"/>
	<path class="st0" d="M310,225.7c2,2.7,4.4,5.1,7.2,7c2.8,1.9,6.1,3.6,9.7,5.1c1.7,0.7,3.6,1.2,5.9,1.7c2.3,0.4,4.6,0.9,7.1,1.5
		c2.4,0.6,4.9,1.2,7.2,2c2.4,0.8,4.6,1.8,6.6,3.2c3,2.2,5.1,4.8,6.3,7.7c1.2,2.9,1.8,6.5,1.8,10.8c0,2.9-0.5,5.6-1.5,8
		c-1,2.4-2.4,4.6-4.2,6.4c-1.8,1.8-4,3.3-6.5,4.3c-2.5,1.1-5.2,1.6-8.2,1.6c-6.2,0-11-1.7-14.5-5.2c-3.4-3.4-5.2-8.1-5.2-14h-4
		c0,3.2,0.7,6.2,2.1,9c1.4,2.8,3.2,5.2,5.4,7.3c2.2,2.1,4.7,3.8,7.6,5c2.8,1.2,5.7,1.8,8.6,1.8c3.7,0,7-0.6,9.9-1.9
		c2.9-1.3,5.5-3,7.7-5.2c2.2-2.2,3.8-4.8,5-7.7c1.2-2.9,1.7-6.1,1.7-9.4c0-4.8-0.7-8.9-2.2-12.4c-1.5-3.5-3.9-6.4-7.1-8.7
		c-2.1-1.6-4.3-2.7-6.7-3.6c-2.3-0.8-4.7-1.5-7.1-2c-2.4-0.5-4.8-0.9-7.2-1.3c-2.4-0.4-4.7-1-6.9-1.9c-6.7-2.6-11.9-6.3-15.6-11.2
		c-3.7-4.9-5.6-11.5-5.6-19.6c0-5,0.9-9.6,2.6-13.7c1.7-4.2,4.1-7.7,7.2-10.7c3.1-3,6.8-5.4,11-7.1c4.2-1.7,8.8-2.6,13.7-2.6
		c4.7,0,9,0.9,13.1,2.7c4.1,1.8,7.5,4.3,10.5,7.4c2.9,3.1,5.3,6.8,7,11c1.7,4.2,2.6,8.7,2.6,13.3h4c0-5.4-1-10.5-2.9-15.2
		c-1.9-4.7-4.6-8.7-8-12.2c-3.4-3.4-7.3-6.1-11.8-8c-4.5-1.9-9.3-2.8-14.4-2.8c-5.3,0-10.3,0.9-15,2.7c-4.7,1.8-8.7,4.4-12.2,7.7
		c-3.4,3.3-6.1,7.3-8.1,12c-1.9,4.7-2.9,9.8-2.9,15.3c0,4.8,0.5,8.9,1.6,12.5C306.5,219.8,308,223,310,225.7z"/>
	<path class="st0" d="M409.4,227.2c2,2.1,4.4,3.7,7.1,4.9c2.7,1.2,5.6,1.8,8.7,1.8c3.3,0,6.4-0.6,9.2-1.8c2.8-1.2,5.3-2.9,7.4-4.9
		c2.1-2.1,3.7-4.5,4.9-7.3s1.7-5.9,1.7-9.1v-42.5h-3.8v43.5c0,5.3-1.6,9.7-4.7,13.2c-3.1,3.4-7.9,5.2-14.5,5.2
		c-5.9,0-10.5-1.7-13.7-5.2c-3.3-3.5-4.9-8.2-4.9-14.1v-42.5h-3.8v42.5c0,3.2,0.6,6.2,1.7,9.1C405.8,222.7,407.4,225.1,409.4,227.2z
		"/>
	<path class="st0" d="M459.8,168.3v44c0,3.9-0.7,7.6-2.2,11.2c-1.5,3.6-3.5,6.8-6,9.7c-2.5,2.9-5.4,5.3-8.8,7.3
		c-3.4,2-6.9,3.3-10.6,4V301h3.8v-53.6c3.9-1.1,7.5-2.8,10.9-5c3.4-2.2,6.3-4.9,8.8-8c2.5-3.1,4.4-6.6,5.8-10.4
		c1.4-3.8,2.1-7.9,2.1-12.2v-43.5H459.8z"/>
	<path class="st0" d="M400.1,233.3c-2.6-3.1-4.7-6.5-6.2-10.4c-1.5-3.9-2.2-7.9-2.2-12.2v-42.5h-3.7v43.5c0,4.3,0.7,8.4,2.1,12.3
		c1.4,3.9,3.4,7.4,6,10.6c2.6,3.2,5.7,5.9,9.2,8.1c3.6,2.2,7.5,3.9,11.8,5V301h3.7v-55.9c-4.1-0.7-7.9-2-11.5-4.1
		C405.8,239,402.8,236.4,400.1,233.3z"/>
	<path class="st0" d="M447.9,231.3c2.5-2.8,4.5-5.9,5.9-9.4c1.4-3.5,2.2-7.2,2.2-11.1v-42.5h-3.8v42.5c0,3.6-0.6,6.9-1.9,10.2
		c-1.3,3.2-3,6.1-5.2,8.6c-2.2,2.5-4.9,4.5-8,5.9c-3.1,1.4-6.5,2.2-10.3,2.2c-3.7,0-7.2-0.7-10.5-2.2c-3.3-1.4-6.2-3.4-8.7-5.9
		c-2.5-2.5-4.5-5.4-5.9-8.6c-1.4-3.2-2.2-6.6-2.2-10.2v-42.5h-3.8v43.5c0,3.6,0.8,7.1,2.3,10.6c1.6,3.5,3.7,6.6,6.3,9.3
		c2.7,2.7,5.8,5,9.3,6.7c3.6,1.8,7.3,2.7,11.2,2.8V301h3.7v-59.8c3.9-0.3,7.5-1.4,10.8-3.2C442.5,236.3,445.4,234,447.9,231.3z"/>
	<circle class="st0" cx="167.7" cy="228.4" r="12.1"/>
</g>
</svg>
