<?xml version="1.0" encoding="UTF-8" standalone="no"?>
<!-- Generator: Adobe Illustrator 19.0.0, SVG Export Plug-In . SVG Version: 6.00 Build 0)  -->

<svg
   xmlns:dc="http://purl.org/dc/elements/1.1/"
   xmlns:cc="http://creativecommons.org/ns#"
   xmlns:rdf="http://www.w3.org/1999/02/22-rdf-syntax-ns#"
   xmlns:svg="http://www.w3.org/2000/svg"
   xmlns="http://www.w3.org/2000/svg"
   xmlns:sodipodi="http://sodipodi.sourceforge.net/DTD/sodipodi-0.dtd"
   xmlns:inkscape="http://www.inkscape.org/namespaces/inkscape"
   version="1.1"
   id="Capa_1"
   x="0px"
   y="0px"
   viewBox="0 0 512.001 512.001"
   style="enable-background:new 0 0 512.001 512.001;"
   xml:space="preserve"
   sodipodi:docname="minion_icon_money.svg"
   inkscape:version="0.92.4 (5da689c313, 2019-01-14)"><metadata
   id="metadata73"><rdf:RDF><cc:Work
       rdf:about=""><dc:format>image/svg+xml</dc:format><dc:type
         rdf:resource="http://purl.org/dc/dcmitype/StillImage" /></cc:Work></rdf:RDF></metadata><defs
   id="defs71" /><sodipodi:namedview
   pagecolor="#ffffff"
   bordercolor="#666666"
   borderopacity="1"
   objecttolerance="10"
   gridtolerance="10"
   guidetolerance="10"
   inkscape:pageopacity="0"
   inkscape:pageshadow="2"
   inkscape:window-width="1366"
   inkscape:window-height="705"
   id="namedview69"
   showgrid="false"
   inkscape:zoom="0.46093662"
   inkscape:cx="256.00049"
   inkscape:cy="95.444353"
   inkscape:window-x="-8"
   inkscape:window-y="-8"
   inkscape:window-maximized="1"
   inkscape:current-layer="Capa_1" />






<g
   id="g38">
</g>
<g
   id="g40">
</g>
<g
   id="g42">
</g>
<g
   id="g44">
</g>
<g
   id="g46">
</g>
<g
   id="g48">
</g>
<g
   id="g50">
</g>
<g
   id="g52">
</g>
<g
   id="g54">
</g>
<g
   id="g56">
</g>
<g
   id="g58">
</g>
<g
   id="g60">
</g>
<g
   id="g62">
</g>
<g
   id="g64">
</g>
<g
   id="g66">
</g>
<path
   style="fill:#800000;stroke-width:2.16949558"
   d=""
   id="path79"
   inkscape:connector-curvature="0" /><path
   style="fill:#800000;stroke-width:2.16949558"
   d=""
   id="path81"
   inkscape:connector-curvature="0" /><path
   style="fill:#d40000;stroke-width:2.16949558"
   d="m 353.89212,467.17439 c -5.65376,-4.57813 -4.21082,-12.3218 2.70503,-14.5168 6.63526,-2.10595 13.89412,5.67187 10.75958,11.52882 -3.37494,6.30613 -8.07799,7.3498 -13.46461,2.98798 z"
   id="path87"
   inkscape:connector-curvature="0" /><path
   style="fill:#d40000;stroke-width:2.16949558"
   d="m 335.77594,222.65225 c -4.07651,-4.07652 -4.34156,-7.80762 -0.80581,-11.34337 5.304,-5.30399 16.92207,-1.68665 16.92207,5.26878 0,3.56699 -6.09083,9.48379 -9.76273,9.48379 -1.61938,0 -4.47846,-1.53414 -6.35353,-3.4092 z"
   id="path89"
   inkscape:connector-curvature="0" /><path
   style="fill:#d40000;stroke-width:2.16949558"
   d=""
   id="path91"
   inkscape:connector-curvature="0" /><path
   style="fill:#e6e6e6;stroke-width:2.16949558"
   d="m 339.01104,408.62699 c -1.40804,-3.39932 -6.40428,-8.34115 -11.10275,-10.98184 -16.32451,-9.17488 -25.25973,-28.49233 -17.50244,-37.8393 3.96155,-4.77336 7.83785,-2.3966 12.32686,7.55823 5.46349,12.11587 12.48609,17.07056 24.19521,17.07056 7.7588,0 10.873,-1.23597 15.97864,-6.34161 13.01125,-13.01125 5.37151,-29.62642 -15.11117,-32.86429 -26.43487,-4.1788 -40.23114,-17.12463 -40.21359,-37.73474 0.0119,-13.9926 5.01323,-22.42896 18.55023,-31.29106 5.81553,-3.80717 10.5737,-8.19686 10.5737,-9.75485 0,-4.37661 8.1172,-10.69311 11.88398,-9.24766 1.85218,0.71075 4.2913,3.72178 5.42027,6.69119 1.12897,2.96941 5.87407,7.81127 10.54467,10.75969 10.51648,6.63876 17.01467,14.71362 19.71714,24.50115 2.65004,9.59766 1.01927,13.68882 -5.45646,13.68882 -3.97841,0 -6.3599,-2.37759 -10.43345,-10.41635 -8.10294,-15.99038 -22.15396,-20.12597 -36.23669,-10.66541 -6.05025,4.06446 -7.48777,6.52044 -8.01921,13.70073 -0.94414,12.75612 6.11233,19.00626 26.60588,23.56564 13.98965,3.1124 17.06535,4.7199 24.53424,12.82268 5.07283,5.50338 9.13177,12.42172 9.9986,17.04233 2.07902,11.08213 -3.30989,25.40303 -12.06116,32.05222 -3.92611,2.98306 -11.17735,9.5729 -16.11387,14.6441 -10.52719,10.8144 -14.57627,11.49522 -18.07863,3.03977 z"
   id="path99"
   inkscape:connector-curvature="0" /><path
   style="fill:#e6e6e6;stroke-width:2.16949558"
   d="m 285.54422,444.34858 c -25.79868,-17.48103 -49.1496,-51.06374 -54.93339,-79.00381 -8.66333,-41.85049 7.92711,-106.04166 23.40622,-90.56255 2.9814,2.9814 2.66487,5.26229 -3.09704,22.31705 -5.50591,16.29701 -6.39154,22.07896 -6.23275,40.69121 0.19765,23.16773 4.30707,38.04104 15.58491,56.40689 7.65402,12.46449 25.767,30.65101 39.15224,39.31119 9.01786,5.8345 11.38301,8.51168 10.84748,12.27853 -1.1375,8.00105 -11.70384,7.38636 -24.72767,-1.43851 z"
   id="path101"
   inkscape:connector-curvature="0" /><path
   style="fill:#e6e6e6;stroke-width:2.16949558"
   d="m 447.20567,398.36243 c -3.63867,-3.63867 -3.27805,-7.55693 1.95677,-21.26106 19.26245,-50.42677 0.78606,-104.96481 -46.45179,-137.11495 -9.74809,-6.63456 -12.45136,-9.64566 -11.93222,-13.29095 2.30482,-16.18384 39.78411,7.38519 60.72727,38.18863 4.68504,6.89081 11.12126,19.09422 14.30272,27.1187 5.2618,13.27163 5.78391,17.23641 5.77819,43.87815 -0.005,25.32025 -0.67008,30.95385 -4.90584,41.58274 -4.84066,12.14678 -12.22994,23.50213 -15.29357,23.50213 -0.86797,0 -2.74966,-1.17153 -4.18153,-2.60339 z"
   id="path103"
   inkscape:connector-curvature="0" /><path
   style="fill:#e6e6e6;stroke-width:2.16949558"
   d="m 327.6159,503.66256 c -32.0963,-3.74039 -62.1648,-16.58003 -88.36598,-37.73339 l -16.95901,-13.69175 -65.1585,-0.91653 -65.158515,-0.91652 -10.34725,-6.40856 c -23.20116,-14.36957 -27.72493,-47.14978 -9.29435,-67.34881 4.09209,-4.48473 4.05443,-4.66966 -3.50802,-17.22835 -10.20325,-16.94417 -10.48073,-29.89754 -1.02548,-47.87224 l 6.61902,-12.58297 -5.27345,-9.87468 c -12.17804,-22.80372 -12.0499,-32.78956 0.67834,-52.85991 l 6.58032,-10.37607 -6.97301,-8.67698 c -5.82358,-7.24667 -7.11612,-10.92454 -7.84121,-22.31178 -1.97865,-31.0741 19.08298,-49.07392 57.421505,-49.07392 10.5862,0 11.88,-0.4627 10.60251,-3.79177 -5.73921,-14.95616 -5.75632,-31.65312 -0.0477,-46.529645 1.11658,-2.90974 -4.44558,-3.457323 -44.029745,-4.334637 -41.10456,-0.911014 -46.2254,-1.448407 -55.19969,-5.792785 C 16.104355,78.451995 8.4175648,66.458124 7.4039248,49.560311 6.3400748,31.825422 12.703735,19.391931 27.550905,10.196628 L 38.059815,3.6881413 H 172.73867 307.4175 l 9.1906,5.264099 c 18.8053,10.7712127 26.5699,32.1186907 19.369,53.2521647 -2.5751,7.557332 -2.7731,10.23854 -0.8026,10.867108 1.4388,0.458946 21.7349,1.206129 45.1025,1.660406 39.7735,0.773217 43.1668,1.163468 53.1411,6.111508 22.6444,11.233352 30.3476,38.254853 17.0412,59.777473 -10.0786,16.30162 -16.8373,19.75072 -42.2304,21.551 -29.1329,2.06542 -29.1163,6.44228 0.07,18.50615 28.2559,11.67924 59.9056,37.08381 76.4401,61.35696 20.0328,29.40859 27.6957,56.33312 27.6957,97.31207 0,48.50294 -13.112,80.05836 -47.6354,114.63962 -21.601,21.63721 -35.3591,30.90358 -59.2161,39.88334 -22.8768,8.61077 -54.2718,12.55392 -77.9675,9.79252 z m 56.9418,-20.53519 c 59.8399,-15.45215 108.0754,-73.29572 111.9235,-134.21743 3.1373,-49.67082 -13.0376,-90.06844 -49.6264,-123.94405 -27.3427,-25.31516 -62.0384,-38.453 -101.5417,-38.44971 -25.4273,0.002 -42.9567,4.19132 -67.1838,16.05569 -14.9663,7.32925 -22.1645,12.75154 -38.20569,28.77961 -16.32398,16.31065 -21.29448,22.95157 -28.55004,38.14474 -23.79934,49.8359 -20.50048,105.74968 8.84777,149.96467 21.36721,32.19107 57.83176,57.59309 92.61996,64.52104 6.5627,1.30695 13.8847,2.82592 16.2712,3.37548 8.2602,1.90221 41.5258,-0.63571 55.4452,-4.23004 z M 206.53599,433.44165 c 0,-0.49027 -4.26513,-10.00893 -9.47805,-21.15259 -5.21293,-11.14366 -10.59365,-23.0165 -11.95716,-26.38412 l -2.47911,-6.12291 -45.71632,0.69917 -45.716305,0.69918 -6.32665,7.0851 c -12.00503,13.44419 -6.53486,39.04658 9.31956,43.61894 6.792095,1.95882 112.354035,3.42191 112.354035,1.55723 z m -28.19044,-79.92234 c 0.007,-5.07119 0.63999,-17.27461 1.4063,-27.11869 l 1.3933,-17.89834 H 136.57368 92.002205 l -6.73323,7.66873 c -13.04755,14.86033 -6.87194,38.91401 11.34499,44.18807 3.779035,1.0941 23.711685,2.07732 44.294775,2.18492 l 37.4238,0.19567 0.013,-9.22036 z m 8.1407,-69.42386 c 0.68145,-2.68475 5.95955,-14.13494 11.72911,-25.44484 5.76957,-11.30993 10.49012,-21.31673 10.49012,-22.23733 0,-2.47485 -101.74799,-2.01162 -110.805375,0.50445 -20.70668,5.75216 -26.71703,29.95045 -11.40796,45.92965 l 5.87236,6.12944 h 46.441365 c 46.34798,0 46.44387,-0.0109 47.68038,-4.88137 z m 56.39645,-79.18659 c 29.0163,-21.48738 60.1167,-33.01517 98.162,-36.38519 39.7222,-3.51854 5.9971,-5.07695 -112.81376,-5.21302 -77.40034,-0.0887 -125.52353,0.67813 -130.572665,2.08048 -11.63093,3.2304 -19.12253,13.09618 -19.12253,25.18272 0,12.01478 2.6205,17.14712 11.52831,22.5786 6.43461,3.92346 11.372755,4.21535 71.442735,4.2229 l 64.53034,0.008 z M 430.7761,138.6229 c 4.1796,-3.94196 8.3056,-9.98117 9.1689,-13.42047 2.1565,-8.59244 -3.1053,-22.44063 -10.6502,-28.029441 -6.0238,-4.462041 -8.1868,-4.54587 -133.5024,-5.173909 -99.78545,-0.500092 -129.22508,-0.03011 -135.89964,2.169496 -18.34192,6.044614 -24.12744,29.083224 -10.79746,42.996714 3.28377,3.42753 8.03263,6.63732 10.55301,7.13289 2.52038,0.49557 62.84532,1.03398 134.05539,1.19648 l 129.4729,0.29544 z M 304.9535,71.205406 c 15.1758,-6.340883 20.9975,-23.36606 13.1674,-38.507719 -6.6204,-12.802479 -5.8891,-12.738328 -145.2121,-12.738328 -139.322975,0 -138.591695,-0.06415 -145.212115,12.738328 -5.63746,10.901663 -4.42148,22.826819 3.21441,31.523614 3.63701,4.142322 8.76244,7.948435 11.38985,8.458026 2.62741,0.509593 61.188235,1.059482 130.135165,1.221977 102.13449,0.240712 126.68439,-0.258726 132.51739,-2.695898 z"
   id="path51"
   inkscape:connector-curvature="0" /></svg>