<?xml version="1.0" encoding="UTF-8"?>
<svg width="120px" height="120px" viewBox="0 0 120 120" version="1.1" xmlns="http://www.w3.org/2000/svg" xmlns:xlink="http://www.w3.org/1999/xlink">
    <!-- Generator: Sketch 46 (44423) - http://www.bohemiancoding.com/sketch -->
    <title>Page 1</title>
    <desc>Created with Sketch.</desc>
    <defs></defs>
    <g id="Page-1" stroke="none" stroke-width="1" fill="none" fill-rule="evenodd">
        <g id="Desktop-Home-Copy-5" transform="translate(-500.000000, -271.000000)" fill="#FFFFFF">
            <g id="Group-4" transform="translate(407.000000, 225.000000)">
                <path d="M123,46 L123,56 L133,56 L142.998667,56 L153,56 L163,56 L172.998667,56 L183,56 L183,46 L123,46 Z M183,66 L193,66 L193,56 L183,56 L183,66 Z M112.998667,56 L112.998667,66 L103,66 L103,76 L93,76 L93,86 L93,96 L93,106 L93,116 L93,126 L93,136 L103,136 L103,126 L103,116 L103,106 L103,96 L103,86 L103,76 L112.998667,76 L112.998667,66 L123,66 L123,56 L112.998667,56 Z M193,76 L203,76 L203,66 L193,66 L193,76 Z M203,76 L203,86 L203,96 L203,106 L203,116 L203,126 L203,136 L213,136 L213,76 L203,76 Z M193,146 L203,146 L203,136 L193,136 L193,146 Z M103,146 L113,146 L113,136 L103,136 L103,146 Z M183,156 L193,156 L193,146 L183,146 L183,156 Z M113,156 L123,156 L123,146 L113,146 L113,156 Z M172.998667,156 L163,156 L153,156 L142.998667,156 L133,156 L123,156 L123,166 L133,166 L142.998667,166 L153,166 L163,166 L172.998667,166 L183,166 L183,156 L172.998667,156 Z" id="Page-1"></path>
            </g>
        </g>
    </g>
</svg>