<?xml version="1.0" encoding="iso-8859-1"?>
<!-- Generator: Adobe Illustrator 18.0.0, SVG Export Plug-In . SVG Version: 6.00 Build 0)  -->
<!DOCTYPE svg PUBLIC "-//W3C//DTD SVG 1.1//EN" "http://www.w3.org/Graphics/SVG/1.1/DTD/svg11.dtd">
<svg version="1.1" id="Capa_1" xmlns="http://www.w3.org/2000/svg" xmlns:xlink="http://www.w3.org/1999/xlink" x="0px" y="0px"
	 viewBox="0 0 297 297" style="enable-background:new 0 0 297 297;" xml:space="preserve">
<path d="M234.067,85.715C234.067,38.451,195.682,0,148.5,0S62.933,38.451,62.933,85.715c0,34.744,20.755,64.703,50.486,78.15
	l24.91,124.794c0.968,4.851,5.225,8.342,10.171,8.342c4.944,0,9.203-3.492,10.171-8.341l24.911-124.795
	C213.313,150.417,234.067,120.459,234.067,85.715z M148.5,233.643l-12.605-63.149c4.115,0.611,8.323,0.938,12.605,0.938
	s8.49-0.326,12.605-0.938L148.5,233.643z M148.5,150.686c-35.744,0-64.823-29.146-64.823-64.972s29.079-64.972,64.823-64.972
	s64.823,29.146,64.823,64.972S184.244,150.686,148.5,150.686z"/>
<g>
</g>
<g>
</g>
<g>
</g>
<g>
</g>
<g>
</g>
<g>
</g>
<g>
</g>
<g>
</g>
<g>
</g>
<g>
</g>
<g>
</g>
<g>
</g>
<g>
</g>
<g>
</g>
<g>
</g>
</svg>
