<?xml version="1.0" encoding="iso-8859-1"?>
<!-- Generator: Adobe Illustrator 18.0.0, SVG Export Plug-In . SVG Version: 6.00 Build 0)  -->
<!DOCTYPE svg PUBLIC "-//W3C//DTD SVG 1.1//EN" "http://www.w3.org/Graphics/SVG/1.1/DTD/svg11.dtd">
<svg version="1.1" id="Capa_1" xmlns="http://www.w3.org/2000/svg" xmlns:xlink="http://www.w3.org/1999/xlink" x="0px" y="0px"
	 viewBox="0 0 297 297" style="enable-background:new 0 0 297 297;" xml:space="preserve">
<g>
	<path d="M108.66,51.642c16.03,0,29.073,13.044,29.073,29.077c0,5.53,4.483,10.013,10.013,10.013
		c5.529,0,10.013-4.482,10.013-10.013c0-27.074-22.025-49.104-49.099-49.104c-5.529,0-10.013,4.482-10.013,10.014
		C98.648,47.157,103.13,51.642,108.66,51.642z"/>
	<path d="M108.659,20.026c33.465,0.002,60.69,27.229,60.69,60.692c0,5.53,4.483,10.013,10.013,10.013
		c5.53,0,10.014-4.482,10.014-10.013c0-44.506-36.209-80.717-80.716-80.719c-5.529,0-10.013,4.482-10.013,10.013
		C98.648,15.544,103.13,20.026,108.659,20.026z"/>
	<path d="M273.714,238.342l-68.719-68.721c-1.877-1.877-4.424-2.934-7.08-2.934c-2.656,0-5.202,1.057-7.08,2.934l-30.273,30.27
		c-7.895-5.509-15.892-12.236-23.379-19.725c-7.49-7.49-14.218-15.486-19.727-23.382l30.273-30.271c3.91-3.91,3.91-10.25,0-14.161
		L79.009,43.629c-1.878-1.877-4.424-2.932-7.08-2.932c-2.656,0-5.203,1.055-7.08,2.932l-34.36,34.363
		c-13.311,13.31-13.517,36.962-0.578,66.599c11.665,26.716,32.887,56.229,59.754,83.099c26.866,26.866,56.377,48.088,83.093,59.753
		c14.597,6.374,27.74,9.558,38.913,9.558c11.512,0,20.93-3.381,27.685-10.137l34.359-34.36
		C277.624,248.593,277.624,242.253,273.714,238.342z M71.929,64.871l54.56,54.562l-20.2,20.2l-54.56-54.562L71.929,64.871z
		 M180.771,269.089c-24.479-10.689-51.806-30.421-76.945-55.561c-25.142-25.143-44.873-52.471-55.563-76.952
		c-6.075-13.914-8.705-25.912-7.77-34.418l51.592,51.593c7.236,13.539,17.901,27.54,30.938,40.574
		c13.029,13.03,27.027,23.697,40.57,30.937l51.596,51.597C206.684,277.795,194.687,275.165,180.771,269.089z M232.275,265.623
		l-54.56-54.561l20.2-20.2l54.559,54.562L232.275,265.623z"/>
</g>
<g>
</g>
<g>
</g>
<g>
</g>
<g>
</g>
<g>
</g>
<g>
</g>
<g>
</g>
<g>
</g>
<g>
</g>
<g>
</g>
<g>
</g>
<g>
</g>
<g>
</g>
<g>
</g>
<g>
</g>
</svg>
