<?xml version="1.0" encoding="UTF-8"?>
<svg height="512pt" viewBox="0 -107 512 512" width="512pt" xmlns="http://www.w3.org/2000/svg">
<path d="m0 149.332031c0 82.347657 67.007812 149.335938 149.332031 149.335938h213.335938c82.324219 0 149.332031-66.988281 149.332031-149.335938 0-82.34375-67.007812-149.332031-149.332031-149.332031h-213.335938c-82.324219 0-149.332031 66.988281-149.332031 149.332031zm0 0" fill="#607d8b"/><path d="m448 149.332031c0 47.128907-38.203125 85.335938-85.332031 85.335938-47.128907 0-85.335938-38.207031-85.335938-85.335938 0-47.128906 38.207031-85.332031 85.335938-85.332031 47.128906 0 85.332031 38.203125 85.332031 85.332031zm0 0" fill="#fafafa"/></svg>