<?xml version="1.0" encoding="UTF-8" standalone="no"?>
<svg
   xmlns:dc="http://purl.org/dc/elements/1.1/"
   xmlns:cc="http://creativecommons.org/ns#"
   xmlns:rdf="http://www.w3.org/1999/02/22-rdf-syntax-ns#"
   xmlns:svg="http://www.w3.org/2000/svg"
   xmlns="http://www.w3.org/2000/svg"
   xmlns:sodipodi="http://sodipodi.sourceforge.net/DTD/sodipodi-0.dtd"
   xmlns:inkscape="http://www.inkscape.org/namespaces/inkscape"
   id="Layer_1"
   enable-background="new 0 0 511.538 511.538"
   height="512"
   viewBox="0 0 511.538 511.538"
   width="512"
   version="1.1"
   sodipodi:docname="add_button.svg"
   inkscape:version="0.92.4 (5da689c313, 2019-01-14)">
  <metadata
     id="metadata17">
    <rdf:RDF>
      <cc:Work
         rdf:about="">
        <dc:format>image/svg+xml</dc:format>
        <dc:type
           rdf:resource="http://purl.org/dc/dcmitype/StillImage" />
      </cc:Work>
    </rdf:RDF>
  </metadata>
  <defs
     id="defs15" />
  <sodipodi:namedview
     pagecolor="#ffffff"
     bordercolor="#666666"
     borderopacity="1"
     objecttolerance="10"
     gridtolerance="10"
     guidetolerance="10"
     inkscape:pageopacity="0"
     inkscape:pageshadow="2"
     inkscape:window-width="1366"
     inkscape:window-height="705"
     id="namedview13"
     showgrid="false"
     inkscape:zoom="0.4609375"
     inkscape:cx="256"
     inkscape:cy="256"
     inkscape:window-x="-8"
     inkscape:window-y="-8"
     inkscape:window-maximized="1"
     inkscape:current-layer="Layer_1" />
  <path
     d="m362.333 116.769h21.666v21.666c0 11.598 9.402 21 21 21s21-9.402 21-21v-21.666h21.667c11.598 0 21-9.402 21-21s-9.402-21-21-21h-21.667v-21.667c0-11.598-9.402-21-21-21s-21 9.402-21 21v21.667h-21.666c-11.598 0-21 9.402-21 21s9.403 21 21 21z"
     id="path2" />
  <ellipse
     cx="191.666"
     cy="202.436"
     id="circle4"
     r="106.667" />
  <path
     d="m383.166 458.435c0-56.292-24.081-107.074-63.12-142.165-8.986-8.078-22.534-8.388-31.72-.538-55.712 47.607-137.593 47.619-193.319.003-9.173-7.838-22.733-7.595-31.688.492-38.834 35.076-63.289 85.784-63.319 142.106-.006 11.606 9.394 21.103 21 21.103h341.167c11.564-.001 20.999-9.37 20.999-21.001z"
     id="path6" />
  <path
     d="m471.525 348.255c-11.623 9.467-25.294 16.512-40.235 20.357-11.435 2.943-18.2 14.704-14.983 26.066 9.954 35.153 8.859 64.731 8.859 63.757 0 11.598 9.402 21 21 21h44.17c11.598 0 21-9.402 21-21 0-65.424 2.046-78.159-6.899-101.671-5.091-13.381-21.811-17.55-32.912-8.509z"
     id="path8" />
  <ellipse
     cx="405"
     cy="266.436"
     id="circle10"
     r="64" />
  <path
     style="fill:#d35f5f;stroke-width:2.16949153"
     d="M 165.31525,304.56562 C 130.97807,295.59045 103.04159,269.22499 91.603023,234.99863 86.020578,218.2949 85.42294,189.2925 90.323561,172.90847 c 10.137579,-33.89251 40.561249,-63.40681 74.888669,-72.65022 14.68337,-3.95382 42.48848,-3.098233 58.13288,1.7888 52.10675,16.27722 84.5073,73.10145 71.07856,124.65789 -8.16827,31.36009 -28.81069,57.10836 -56.18154,70.07789 -25.60303,12.13186 -47.39199,14.4572 -72.92688,7.78279 z"
     id="path3722"
     inkscape:connector-curvature="0"
     transform="scale(0.99909766)" />
  <path
     style="fill:#d35f5f;stroke-width:2.16949153"
     d="M 158.57558,301.30041 C 99.185243,279.84036 71.00694,212.34785 98.295273,156.91737 c 9.044457,-18.37189 29.409477,-38.7335 47.790427,-47.78241 68.02198,-33.48711 149.39905,17.04145 149.39905,92.76469 0,43.19953 -25.13602,80.7475 -65.05872,97.18417 -20.72494,8.53271 -51.7241,9.48904 -71.85045,2.21659 z"
     id="path3724"
     inkscape:connector-curvature="0"
     transform="scale(0.99909766)" />
  <path
     style="fill:#d35f5f;stroke-width:2.16949153"
     d="m 16.432322,478.39577 c -2.53646,-0.49767 -6.9296803,-3.37993 -9.7627117,-6.40503 -4.5105959,-4.81639 -5.1187909,-7.46238 -4.8921561,-21.28366 0.5035932,-30.7115 12.6381148,-69.08957 30.2202788,-95.57822 10.796609,-16.26578 30.249214,-37.2678 38.442923,-41.50493 8.655369,-4.47587 14.821669,-2.58031 33.544484,10.31174 28.91401,19.90946 54.15567,27.95586 87.69796,27.95586 34.43862,0 60.64881,-8.67337 90.77969,-30.04044 23.39605,-16.59113 32.83729,-13.6703 57.78217,17.87603 24.56548,31.06652 38.53685,66.38328 41.32324,104.45665 1.60681,21.95571 -1.76821,30.04172 -13.95133,33.42515 -7.8075,2.16826 -340.346639,2.91334 -351.184548,0.78685 z"
     id="path3726"
     inkscape:connector-curvature="0"
     transform="scale(0.99909766)" />
  <path
     style="fill:#d35f5f;stroke-width:2.16949153"
     d="m 388.53725,327.32851 c -18.59462,-5.23311 -35.01954,-20.67512 -42.31783,-39.78542 -5.33571,-13.97135 -3.31903,-38.42384 4.23152,-51.30789 12.8598,-21.94357 34.31205,-33.20734 59.76469,-31.38016 16.82026,1.20748 28.36863,6.52863 39.73832,18.31028 29.63447,30.7082 21.37362,80.99531 -16.31251,99.30077 -13.79665,6.70152 -31.70826,8.63246 -45.10419,4.86242 z"
     id="path3728"
     inkscape:connector-curvature="0"
     transform="scale(0.99909766)" />
  <path
     style="fill:#d35f5f;stroke-width:2.16949153"
     d="m 392.88728,152.72963 c -6.1389,-5.48511 -6.91037,-7.59864 -7.91895,-21.69491 l -1.11745,-15.61777 h -13.64373 c -11.51305,0 -14.68613,-0.87712 -20.31866,-5.61658 -8.92414,-7.50917 -9.3319,-19.338162 -0.95536,-27.714699 5.04649,-5.046493 7.43758,-5.719569 20.31866,-5.719569 h 14.59909 l 1.11745,-15.617766 c 1.00858,-14.096277 1.78005,-16.209805 7.91895,-21.694916 7.43633,-6.644355 12.21325,-7.441132 20.89537,-3.485289 8.07909,3.681075 11.87159,12.521597 11.87159,27.673285 v 13.124686 h 14.24432 c 17.06423,0 22.00244,2.290297 26.10405,12.106828 2.68659,6.42991 2.68659,8.40728 0,14.83719 -4.10161,9.81653 -9.03982,12.10683 -26.10405,12.10683 h -14.24432 v 12.91487 c 0,15.5166 -3.14787,23.23911 -11.16209,27.38343 -8.77822,4.53939 -13.98881,3.81932 -21.60487,-2.98562 z"
     id="path3730"
     inkscape:connector-curvature="0"
     transform="scale(0.99909766)" />
  <path
     style="fill:#ffffff;stroke-width:2.16949153"
     d="m 439.13235,476.62295 c -9.03615,-3.92602 -13.48976,-14.14037 -13.44288,-30.83123 0.0194,-6.89935 -2.10224,-23.55617 -4.7147,-37.01516 l -4.74994,-24.4709 4.40331,-5.90198 c 2.80187,-3.7555 9.84245,-7.91461 19.35877,-11.43592 8.2255,-3.04366 20.31192,-9.14535 26.85871,-13.55932 20.51132,-13.82912 33.08588,-9.49017 40.00335,13.80347 2.61275,8.7981 3.41544,21.74735 3.41544,55.09913 0,48.97042 -0.64866,51.40992 -14.70803,55.31458 -11.98245,3.32784 -47.92705,2.6891 -56.42403,-1.00267 z"
     id="path3732"
     inkscape:connector-curvature="0"
     transform="scale(0.99909766)" />
  <path
     style="fill:#ffffff;stroke-width:2.16949153"
     d="M 160.45982,302.11935 C 112.34449,286.7381 80.744718,235.19448 88.976128,185.51951 c 6.92976,-41.81977 42.489072,-77.8947 84.478472,-85.70343 50.47178,-9.386188 105.32009,25.25254 118.79191,75.02147 5.03785,18.61132 3.63824,47.28349 -3.17018,64.94382 -10.89257,28.25417 -37.59874,53.19858 -66.51945,62.13128 -18.32442,5.65984 -44.76335,5.74784 -62.09706,0.20669 z"
     id="path3734"
     inkscape:connector-curvature="0"
     transform="scale(0.99909766)" />
  <path
     style="fill:#ffffff;stroke-width:2.16949153"
     d="M 8.2509518,471.08392 C 1.53214,463.09907 0.82121958,450.45098 5.6776932,425.30271 13.018015,387.29233 28.809424,356.37096 54.353295,329.99036 74.715184,308.96149 77.29101,308.56476 100.33027,322.909 c 38.9887,24.27435 59.27523,30.10452 99.09051,28.47772 32.17765,-1.31474 47.49489,-6.23309 77.31485,-24.82569 12.10184,-7.54545 24.44403,-13.71565 27.42708,-13.71156 8.62625,0.0118 18.23332,7.22723 32.27,24.23644 26.662,32.30816 43.66221,76.09943 43.66221,112.47057 0,13.34465 -0.86023,17.89985 -4.14681,21.95911 l -4.14684,5.1217 -178.95137,0.57919 -178.951386,0.57919 z"
     id="path3736"
     inkscape:connector-curvature="0"
     transform="scale(0.99909766)" />
  <path
     style="fill:#ffffff;stroke-width:2.16949153"
     d="m 380.958,322.96768 c -29.36287,-14.03595 -42.5111,-43.93698 -33.65463,-76.53567 3.28583,-12.09441 18.23737,-28.53058 31.62414,-34.76429 12.20947,-5.68549 32.68385,-6.86213 47.81147,-2.74767 12.92563,3.51555 32.29947,24.08377 36.72626,38.99038 12.07424,40.6584 -13.69476,77.07137 -56.25168,79.4866 -12.75117,0.72366 -16.96147,0.0135 -26.25556,-4.42935 z"
     id="path3738"
     inkscape:connector-curvature="0"
     transform="scale(0.99909766)" />
  <path
     style="fill:#ffffff;stroke-width:2.16949153"
     d="m 392.21997,149.96236 c -3.08912,-3.67121 -5.62733,-9.28477 -5.64046,-12.47458 -0.0132,-3.1898 -0.60771,-9.32943 -1.32128,-13.64361 l -1.2974,-7.84396 -14.40753,-1.31337 c -12.45954,-1.13579 -15.21419,-2.2065 -20.37364,-7.91908 -6.82578,-7.557546 -7.26714,-10.745258 -2.70839,-19.560922 3.62876,-7.017235 13.5925,-10.808511 28.45843,-10.828637 8.63832,-0.0117 8.98134,-0.283535 10.28121,-8.147693 0.7396,-4.474576 1.35547,-10.745435 1.3686,-13.93524 0.0379,-9.200908 9.78206,-19.149505 18.75602,-19.149505 12.02618,0 17.53322,7.26242 19.32939,25.490655 l 1.49318,15.153436 15.47688,1.436651 c 18.82311,1.747267 24.05624,5.807605 24.05624,18.66502 0,12.857415 -5.23313,16.917755 -24.05624,18.665025 l -15.47688,1.43665 -1.49318,15.15343 c -1.16554,11.82835 -2.62732,16.28758 -6.6618,20.32205 -7.6809,7.68091 -18.58883,7.04363 -25.78315,-1.50632 z"
     id="path3740"
     inkscape:connector-curvature="0"
     transform="scale(0.99909766)" />
</svg>
