<?xml version="1.0" encoding="UTF-8" standalone="no"?>
<svg
   xmlns:dc="http://purl.org/dc/elements/1.1/"
   xmlns:cc="http://creativecommons.org/ns#"
   xmlns:rdf="http://www.w3.org/1999/02/22-rdf-syntax-ns#"
   xmlns:svg="http://www.w3.org/2000/svg"
   xmlns="http://www.w3.org/2000/svg"
   xmlns:sodipodi="http://sodipodi.sourceforge.net/DTD/sodipodi-0.dtd"
   xmlns:inkscape="http://www.inkscape.org/namespaces/inkscape"
   width="36px"
   height="36px"
   viewBox="0 0 36 36"
   version="1.1"
   id="svg13"
   sodipodi:docname="arrow.svg"
   inkscape:version="0.92.4 (5da689c313, 2019-01-14)">
  <metadata
     id="metadata17">
    <rdf:RDF>
      <cc:Work
         rdf:about="">
        <dc:format>image/svg+xml</dc:format>
        <dc:type
           rdf:resource="http://purl.org/dc/dcmitype/StillImage" />
      </cc:Work>
    </rdf:RDF>
  </metadata>
  <sodipodi:namedview
     pagecolor="#ffffff"
     bordercolor="#666666"
     borderopacity="1"
     objecttolerance="10"
     gridtolerance="10"
     guidetolerance="10"
     inkscape:pageopacity="0"
     inkscape:pageshadow="2"
     inkscape:window-width="1366"
     inkscape:window-height="705"
     id="namedview15"
     showgrid="false"
     inkscape:zoom="6.5555556"
     inkscape:cx="48.127119"
     inkscape:cy="19.310123"
     inkscape:window-x="-8"
     inkscape:window-y="-8"
     inkscape:window-maximized="1"
     inkscape:current-layer="svg13" />
  <!-- Generator: Sketch 46 (44423) - http://www.bohemiancoding.com/sketch -->
  <title
     id="title2">Page 1</title>
  <desc
     id="desc4">Created with Sketch.</desc>
  <defs
     id="defs6" />
  <path
     style="fill:#e6e6e6;stroke-width:0.15254237"
     d="M 12.665398,23.505475 C 10.750107,21.532191 9.1602153,19.81276 9.1323055,19.684519 c -0.061142,-0.280939 0.40849,-0.805922 4.1185535,-4.603965 1.577631,-1.615042 2.967484,-2.93644 3.088562,-2.93644 0.287571,0 0.699562,0.417161 0.699562,0.708341 0,0.125907 -1.248001,1.511047 -2.773336,3.078087 l -2.773336,2.849165 8.804379,0.07627 c 9.355685,0.08105 9.088856,0.05845 9.09589,0.770339 0.0059,0.59715 -0.0757,0.602542 -9.117156,0.602542 -5.111266,0 -8.732234,0.05702 -8.702543,0.137036 0.02797,0.07537 1.26928,1.41114 2.758475,2.96838 1.489195,1.557239 2.707627,2.92646 2.707627,3.042712 0,0.24357 -0.478187,0.716279 -0.72458,0.716279 -0.09166,0 -1.733714,-1.614506 -3.649005,-3.58779 z"
     id="path87"
     inkscape:connector-curvature="0" />
  <path
     style="fill:#e6e6e6;stroke-width:0.15254237"
     d="M 15.818911,35.777786 C 8.6066911,34.886255 2.7213594,29.617502 0.87945251,22.403465 -1.24593,14.079166 2.7777919,5.3249922 10.40339,1.6827995 12.437504,0.71125087 13.845076,0.30451477 16.010133,0.06265867 25.170225,-0.96060534 33.563927,5.8189049 34.976188,15.381354 c 1.24029,8.398031 -3.709227,16.715157 -11.629641,19.542342 -2.162036,0.771738 -5.307102,1.128579 -7.527636,0.85409 z m 5.162886,-1.606497 c 3.294629,-0.678859 6.683007,-2.70599 8.844283,-5.291181 1.715176,-2.051591 2.803124,-4.170891 3.577339,-6.968584 0.269188,-0.972735 0.317989,-1.581201 0.318472,-3.9708 4.57e-4,-2.565546 -0.0357,-2.956597 -0.39847,-4.302582 C 31.750076,7.8005813 27.35044,3.3349096 21.680636,1.8206047 20.362182,1.4684687 19.85999,1.4149659 17.801694,1.4073474 15.867494,1.4001882 15.201368,1.4581633 14.140677,1.7259778 3.8703997,4.3191268 -1.3790552,15.925145 3.406379,25.458436 c 1.220209,2.430838 3.3696818,4.901765 5.5297312,6.356706 3.5220578,2.372347 7.8544128,3.219759 12.0456868,2.356147 z"
     id="path89"
     inkscape:connector-curvature="0" />
  <path
     inkscape:connector-curvature="0"
     id="path91"
     d="M 11.154462,23.969204 C 9.0661684,21.915378 7.3326662,20.125766 7.3022352,19.992291 7.2355726,19.699885 7.747623,19.153474 11.792806,15.200409 c 1.720134,-1.680962 3.235529,-3.056295 3.367543,-3.056295 0.313547,0 0.762752,0.434188 0.762752,0.737253 0,0.131046 -1.36073,1.572722 -3.023844,3.203723 l -3.0238434,2.965458 9.5996534,0.07938 c 10.200758,0.08436 9.909827,0.06084 9.917497,0.801781 0.0064,0.621524 -0.08254,0.627136 -9.940683,0.627136 -5.572953,0 -9.5209926,0.05935 -9.4886197,0.142629 0.030496,0.07845 1.3839307,1.468737 3.0076407,3.089538 1.623709,1.6208 2.952199,3.045908 2.952199,3.166905 0,0.253511 -0.52138,0.745514 -0.790029,0.745514 -0.09994,0 -1.890316,-1.680404 -3.97861,-3.73423 z"
     style="fill:#999999;stroke-width:0.16250096" />
</svg>
