<?xml version="1.0" encoding="UTF-8" standalone="no"?>
<!-- Generator: Adobe Illustrator 19.0.0, SVG Export Plug-In . SVG Version: 6.00 Build 0)  -->

<svg
   xmlns:dc="http://purl.org/dc/elements/1.1/"
   xmlns:cc="http://creativecommons.org/ns#"
   xmlns:rdf="http://www.w3.org/1999/02/22-rdf-syntax-ns#"
   xmlns:svg="http://www.w3.org/2000/svg"
   xmlns="http://www.w3.org/2000/svg"
   xmlns:sodipodi="http://sodipodi.sourceforge.net/DTD/sodipodi-0.dtd"
   xmlns:inkscape="http://www.inkscape.org/namespaces/inkscape"
   version="1.1"
   id="Layer_1"
   x="0px"
   y="0px"
   viewBox="0 0 512 512"
   style="enable-background:new 0 0 512 512;"
   xml:space="preserve"
   sodipodi:docname="arrow.svg"
   inkscape:version="0.92.4 (5da689c313, 2019-01-14)"><metadata
   id="metadata47"><rdf:RDF><cc:Work
       rdf:about=""><dc:format>image/svg+xml</dc:format><dc:type
         rdf:resource="http://purl.org/dc/dcmitype/StillImage" /></cc:Work></rdf:RDF></metadata><defs
   id="defs45" /><sodipodi:namedview
   pagecolor="#ffffff"
   bordercolor="#666666"
   borderopacity="1"
   objecttolerance="10"
   gridtolerance="10"
   guidetolerance="10"
   inkscape:pageopacity="0"
   inkscape:pageshadow="2"
   inkscape:window-width="1366"
   inkscape:window-height="705"
   id="namedview43"
   showgrid="false"
   inkscape:zoom="0.4609375"
   inkscape:cx="256"
   inkscape:cy="256"
   inkscape:window-x="-8"
   inkscape:window-y="-8"
   inkscape:window-maximized="1"
   inkscape:current-layer="Layer_1" />
<g
   id="g10">
	<g
   id="g8">
		<g
   id="g6">
			<path
   d="M256,0C114.844,0,0,114.844,0,256s114.844,256,256,256s256-114.844,256-256S397.156,0,256,0z M256,490.667     C126.604,490.667,21.333,385.396,21.333,256S126.604,21.333,256,21.333S490.667,126.604,490.667,256S385.396,490.667,256,490.667     z"
   id="path2" />
			<path
   d="M394.667,245.333H143.083l77.792-77.792c4.167-4.167,4.167-10.917,0-15.083c-4.167-4.167-10.917-4.167-15.083,0l-96,96     c-4.167,4.167-4.167,10.917,0,15.083l96,96c2.083,2.083,4.813,3.125,7.542,3.125c2.729,0,5.458-1.042,7.542-3.125     c4.167-4.167,4.167-10.917,0-15.083l-77.792-77.792h251.583c5.896,0,10.667-4.771,10.667-10.667S400.563,245.333,394.667,245.333     z"
   id="path4" />
		</g>
	</g>
</g>
<g
   id="g12">
</g>
<g
   id="g14">
</g>
<g
   id="g16">
</g>
<g
   id="g18">
</g>
<g
   id="g20">
</g>
<g
   id="g22">
</g>
<g
   id="g24">
</g>
<g
   id="g26">
</g>
<g
   id="g28">
</g>
<g
   id="g30">
</g>
<g
   id="g32">
</g>
<g
   id="g34">
</g>
<g
   id="g36">
</g>
<g
   id="g38">
</g>
<g
   id="g40">
</g>
<path
   style="fill:#ff0000;stroke-width:2.16949153"
   d="m 158.53272,311.21356 c -26.97874,-27.14576 -49.70165,-51.22913 -50.49537,-53.5186 -1.15927,-3.34389 8.70588,-14.34651 50.15468,-55.93761 36.05614,-36.17993 52.82985,-51.58953 55.68816,-51.15937 2.2497,0.33857 5.56792,2.85174 7.37382,5.58482 3.20254,4.84678 2.28636,5.97137 -37.17511,45.63197 -22.25221,22.36451 -40.45856,41.36224 -40.45856,42.2172 0,0.85496 57.04213,1.55447 126.76029,1.55447 112.34397,0 127.14802,0.38773 130.16949,3.4092 4.06024,4.06025 4.40906,9.90958 0.80581,13.51283 -1.96582,1.96583 -33.84407,2.60339 -130.16949,2.60339 -70.16136,0 -127.5661,0.74267 -127.5661,1.65037 0,0.90771 17.14746,18.72465 38.10546,39.59322 20.95801,20.86857 39.05338,39.65133 40.21193,41.73947 3.2017,5.77063 -1.33688,12.47457 -8.44531,12.47457 -4.81974,0 -14.93924,-9.0877 -54.9597,-49.35593 z"
   id="path49"
   inkscape:connector-curvature="0" /><path
   style="fill:#ff0000;stroke-width:2.16949153"
   d="m 211.95932,507.09083 c -25.05283,-4.58938 -45.38827,-11.5558 -69.9823,-23.97418 C 71.340145,447.44964 22.717405,383.90775 5.7399331,305.07728 1.1415687,283.72597 0.53820507,235.79681 4.5813591,213.04407 16.290882,147.14904 54.832759,86.581625 109.71022,47.837182 c 91.19573,-64.385774 212.28474,-61.857223 301.38914,6.293534 18.16806,13.8957 40.87612,37.652647 53.64347,56.121254 15.38057,22.24877 31.19851,56.42714 38.03427,82.18193 7.92283,29.85055 9.7554,75.89003 4.24572,106.66552 -9.56,53.39948 -32.8801,97.97715 -71.41318,136.51022 -37.73889,37.73887 -80.06803,60.33634 -132.06623,70.50371 -24.84159,4.85736 -67.89597,5.31688 -91.58409,0.97748 z m 87.32125,-19.6321 c 97.80057,-18.55245 173.62613,-96.47683 189.34364,-194.58466 3.8644,-24.12139 1.79143,-71.82718 -4.09835,-94.3163 C 461.06455,108.97474 391.5492,43.655808 298.73898,23.986256 279.73569,19.958829 228.79403,20.641375 207.62034,25.207118 117.21147,44.702238 44.702238,117.21147 25.207118,207.62034 c -4.565743,21.17369 -5.248288,72.11535 -1.220862,91.11864 20.397531,96.24516 90.747804,168.00593 183.960524,187.64885 24.2992,5.12063 67.32588,5.62512 91.33379,1.0709 z"
   id="path51"
   inkscape:connector-curvature="0" /><path
   style="fill:#ececec;stroke-width:2.16949153"
   d="m 207.45003,356.36815 c -8.89088,-5.54895 -98.54156,-96.4747 -98.54156,-99.94308 0,-3.46769 93.66216,-98.09367 100.96092,-101.99985 4.20869,-2.25243 5.82879,-2.256 8.52445,-0.0188 1.83051,1.51918 3.32819,3.67502 3.32819,4.79076 0,1.11573 -17.57288,20.41221 -39.05084,42.88105 -21.47797,22.46886 -39.05085,41.45001 -39.05085,42.18034 0,0.73033 39.87061,1.32787 88.60137,1.32787 48.73075,0 106.37979,0.64398 128.10901,1.43106 36.19109,1.31092 39.69839,1.78747 41.77991,5.67683 1.71557,3.20556 1.47482,5.04321 -0.9826,7.50064 -2.79223,2.79222 -21.32413,3.41901 -130.38127,4.40972 -69.91953,0.63518 -127.12642,1.58225 -127.12642,2.1046 0,0.52235 17.32881,18.98239 38.50847,41.02232 21.17966,22.03993 38.81179,41.90246 39.1825,44.13896 1.1083,6.68627 -6.43353,9.13337 -13.86128,4.49758 z"
   id="path28"
   inkscape:connector-curvature="0" /><path
   style="fill:#ececec;stroke-width:2.16949153"
   d="M 204.61121,504.74383 C 149.0117,492.68168 94.493603,459.27209 59.820101,416.01345 23.516151,370.72067 5.8704221,324.61724 3.3092311,268.3661 0.66845397,210.36702 13.579884,163.49204 45.346465,115.74981 95.108382,40.962267 176.62617,-0.4198799 267.05388,3.2010192 368.91655,7.2797956 454.90692,69.354652 492.66465,166.06523 c 11.75543,30.10975 15.94626,54.23702 15.88516,91.45341 -0.11585,70.64234 -23.44845,126.43951 -74.02005,177.01112 -37.95964,37.95961 -78.00357,59.79396 -128.64846,70.14682 -21.29144,4.35241 -81.33422,4.39226 -101.27009,0.0673 z m 114.73794,-21.12234 c 68.04964,-20.58921 123.85948,-68.53398 151.98707,-130.56805 13.02266,-28.72086 17.68722,-49.44629 18.84772,-83.74389 1.26776,-37.46729 -1.54461,-61.85204 -10.02292,-86.90375 -12.71146,-37.55983 -31.40315,-67.27905 -59.4033,-94.449459 -29.4128,-28.541186 -62.99306,-47.995145 -104.6628,-60.633999 -18.23042,-5.529469 -22.11543,-5.916108 -58.57628,-5.829547 -34.65359,0.08227 -41.37161,0.708165 -59.66101,5.55841 -80.1309,21.250257 -145.47012,84.549145 -169.068898,163.789425 -10.579277,35.52323 -11.032892,91.238 -1.024039,125.77646 22.640488,78.12758 79.236577,138.04561 154.067687,163.11075 28.47857,9.53906 38.68754,10.81092 81.10999,10.10492 33.44454,-0.55658 40.16228,-1.29631 56.40678,-6.21127 z"
   id="path30"
   inkscape:connector-curvature="0" /></svg>