<?xml version="1.0" encoding="UTF-8" standalone="no"?>
<!-- Generator: Adobe Illustrator 19.0.0, SVG Export Plug-In . SVG Version: 6.00 Build 0)  -->

<svg
   xmlns:dc="http://purl.org/dc/elements/1.1/"
   xmlns:cc="http://creativecommons.org/ns#"
   xmlns:rdf="http://www.w3.org/1999/02/22-rdf-syntax-ns#"
   xmlns:svg="http://www.w3.org/2000/svg"
   xmlns="http://www.w3.org/2000/svg"
   xmlns:sodipodi="http://sodipodi.sourceforge.net/DTD/sodipodi-0.dtd"
   xmlns:inkscape="http://www.inkscape.org/namespaces/inkscape"
   version="1.1"
   id="Capa_1"
   x="0px"
   y="0px"
   viewBox="0 0 511.998 511.998"
   style="enable-background:new 0 0 511.998 511.998;"
   xml:space="preserve"
   sodipodi:docname="minion_icon_home.svg"
   inkscape:version="0.92.4 (5da689c313, 2019-01-14)"><metadata
   id="metadata61"><rdf:RDF><cc:Work
       rdf:about=""><dc:format>image/svg+xml</dc:format><dc:type
         rdf:resource="http://purl.org/dc/dcmitype/StillImage" /></cc:Work></rdf:RDF></metadata><defs
   id="defs59" /><sodipodi:namedview
   pagecolor="#ffffff"
   bordercolor="#666666"
   borderopacity="1"
   objecttolerance="10"
   gridtolerance="10"
   guidetolerance="10"
   inkscape:pageopacity="0"
   inkscape:pageshadow="2"
   inkscape:window-width="1366"
   inkscape:window-height="705"
   id="namedview57"
   showgrid="false"
   inkscape:zoom="0.46093931"
   inkscape:cx="255.99899"
   inkscape:cy="255.99899"
   inkscape:window-x="-8"
   inkscape:window-y="-8"
   inkscape:window-maximized="1"
   inkscape:current-layer="Capa_1" />
<g
   id="g6">
	<g
   id="g4">
		<path
   d="M315.046,361.686h-28.067c-4.142,0-7.5,3.358-7.5,7.5c0,4.143,3.358,7.5,7.5,7.5h28.067c4.142,0,7.5-3.357,7.5-7.5    C322.546,365.044,319.188,361.686,315.046,361.686z"
   id="path2" />
	</g>
</g>
<g
   id="g12">
	<g
   id="g10">
		<path
   d="M480.248,281.394l-40.841-15.753l-20.823-20.823c-1.337-1.337-3.06-2.061-4.82-2.174v-16.569    c9.814-10.464,16.8-23.715,19.619-38.643c1.75,0.079,3.517-0.062,5.26-0.418c9.979-2.043,17.222-11.302,17.222-22.014v-5.469    c0-6.197-2.513-11.885-6.605-15.952c6.623-36.02,1.168-65.374-15.846-85.021c-16.457-19.003-42.971-28.086-76.672-26.263    c-31.136,1.683-51.236,16.009-57.604,21.25c-3.486,0.414-9.424,1.638-15.434,5.244c-8.33,4.998-18.259,15.497-18.259,37.13    c0,18.872,3.016,34.628,5.2,43.567c-7.32,3.566-12.217,11.294-12.217,20.129v5.384c0,10.712,7.243,19.971,17.222,22.014    c1.743,0.357,3.511,0.497,5.26,0.418c2.819,14.928,9.806,28.179,19.619,38.643v16.569c-1.76,0.113-3.484,0.837-4.82,2.174    l-20.823,20.823l-40.841,15.753c-3.533,1.362-6.908,3.129-10.03,5.25c-3.426,2.328-4.316,6.992-1.989,10.418    c1.451,2.136,3.81,3.286,6.21,3.286c1.451,0,2.917-0.421,4.208-1.297c2.177-1.479,4.532-2.711,6.999-3.663l37.903-14.62    l28.98,43.471c3.592,5.389,9.35,8.846,15.795,9.484c0.717,0.071,1.434,0.106,2.146,0.106c3.731,0,7.351-0.981,10.555-2.794    l-6.219,141.068c-0.183,4.138,3.024,7.641,7.163,7.823c0.112,0.005,0.224,0.007,0.336,0.007c3.99,0,7.31-3.145,7.487-7.17    l5.772-130.941h15.57l5.772,130.941c0.177,4.026,3.497,7.17,7.487,7.17c0.112,0,0.224-0.002,0.336-0.007    c4.138-0.182,7.345-3.685,7.163-7.823l-6.219-141.068c3.204,1.813,6.823,2.794,10.555,2.794c0.712,0,1.429-0.035,2.146-0.106    c6.445-0.638,12.202-4.095,15.795-9.484l28.98-43.471l37.903,14.62c5.316,2.05,9.892,5.321,13.49,9.402l-25.931,25.931    c-9.369,9.369-14.528,21.825-14.528,35.073v106.64c0,4.142,3.358,7.5,7.5,7.5c4.142,0,7.5-3.358,7.5-7.5v-106.64    c0-9.241,3.599-17.931,10.134-24.466l22.758-22.758c0.914,3.353,1.341,6.878,1.197,10.482l-5.809,143.078    c-0.168,4.139,3.051,7.63,7.189,7.799c0.104,0.004,0.207,0.006,0.31,0.006c4.001,0,7.325-3.161,7.488-7.195l5.811-143.082    C512.809,308.433,500.066,289.038,480.248,281.394z M295.592,184.339c-1.323-7.201-7.991-12.435-15.188-11.902    c-0.569,0.041-1.155,0.001-1.745-0.119c-2.982-0.61-5.231-3.757-5.231-7.318v-5.386c0-3.479,2.325-6.613,5.292-7.134    c2.504-0.44,4.902,0.479,6.419,2.458c1.377,1.795,3.214,3.079,5.311,3.711c3.072,0.928,6.459,0.383,9.063-1.455    c4.69-3.311,8.828-7.356,12.299-12.024c2.472-3.324,1.78-8.022-1.543-10.493c-3.325-2.472-8.022-1.781-10.494,1.543    c-1.731,2.328-3.687,4.441-5.84,6.311c-2.378-2.034-5.156-3.504-8.133-4.343c-1.927-7.382-5.357-23.197-5.357-42.271    c0-11.487,3.541-19.558,10.524-23.988c5.449-3.457,11.216-3.595,11.212-3.596c1.917,0,3.783-0.755,5.175-2.072    c0.183-0.172,18.62-17.282,50.194-18.989c28.902-1.56,51.214,5.736,64.523,21.104c13.414,15.49,17.881,39.271,13.035,69.036    c-2.009-0.071-4.208,0.081-6.397,0.446l-7.046-16.922c-1.438-3.452-5.204-5.316-8.822-4.373    c-0.697,0.182-69.958,17.74-98.999-18.416c-2.593-3.229-7.313-3.745-10.544-1.151c-3.229,2.594-3.745,7.314-1.15,10.544    c29.656,36.922,88.5,28.89,108.088,24.973l5.449,13.085c2.343,5.625,8.337,8.697,14.245,7.304    c2.425-0.571,4.742-0.584,5.612-0.412c3.033,0.604,5.32,3.629,5.32,7.039v5.47c0,3.562-2.249,6.708-5.231,7.318    c-0.589,0.121-1.178,0.161-1.745,0.119c-7.196-0.524-13.864,4.7-15.188,11.903c-5.456,29.704-31.343,51.264-61.554,51.264    C326.935,235.603,301.048,214.043,295.592,184.339z M328.863,316.915c-1.902,1.902-4.113,1.995-5.263,1.881    c-1.149-0.113-3.3-0.639-4.792-2.877l-29.195-43.792l11.741-11.741l44.82,39.218L328.863,316.915z M350.022,326.822l0.454-10.308    l6.669-6.669l6.669,6.669l0.454,10.308H350.022z M357.146,289.272l-41.617-36.415v-14.354c12.1,7.695,26.416,12.1,41.617,12.1    s29.518-4.405,41.618-12.1v14.354L357.146,289.272z M395.486,315.919c-1.493,2.239-3.644,2.764-4.792,2.877    c-1.151,0.114-3.362,0.021-5.264-1.882l-17.311-17.311l44.82-39.218l11.741,11.741L395.486,315.919z"
   id="path8" />
	</g>
</g>
<g
   id="g18">
	<g
   id="g16">
		<path
   d="M237.845,320.699l-36.622-15.985l-20.019-20.019c-1.341-1.342-3.065-2.062-4.82-2.174v-11.799    c17.109-11.243,29.629-29.124,33.652-50.431c1.97,0.088,3.959-0.101,5.919-0.564c9.597-2.271,16.562-11.468,16.562-21.868v-5.468    c0-7.598-3.77-14.433-9.611-18.443c1.718-6.806,2.594-13.769,2.594-20.778c0-31.072-16.796-58.44-42.113-74.154    c-0.27-25.933-22.405-46.953-49.588-46.953c-27.183,0-49.318,21.02-49.588,46.953C58.895,94.73,42.099,122.099,42.099,153.17    c0,6.988,0.87,13.931,2.578,20.718c-5.838,3.99-9.595,10.857-9.595,18.585v5.386c0,10.4,6.965,19.597,16.562,21.868    c1.96,0.464,3.948,0.652,5.919,0.564c4.023,21.307,16.544,39.188,33.653,50.431v11.799c-1.755,0.112-3.479,0.832-4.82,2.174    l-20.019,20.019l-36.621,15.985c-18.633,8.134-30.573,27.246-29.712,47.559l4.429,104.493c0.171,4.03,3.492,7.183,7.488,7.183    c0.107,0,0.215-0.002,0.323-0.007c4.139-0.175,7.351-3.672,7.176-7.811l-4.43-104.494c-0.285-6.733,1.465-13.266,4.755-18.889    l19.685,23.622c6.221,7.465,9.646,16.927,9.646,26.643v73.436c0,4.142,3.358,7.5,7.5,7.5c4.142,0,7.5-3.358,7.5-7.5v-73.436    c0-13.218-4.661-26.09-13.123-36.245L30.066,337.64c1.779-1.226,3.67-2.312,5.691-3.194l31.916-13.932l22.554,36.609    c2.227,3.615,5.909,6.066,10.103,6.726c0.754,0.119,1.51,0.177,2.263,0.177c3.429,0,6.769-1.215,9.417-3.475l14.292-12.195    v124.077c0,4.142,3.358,7.5,7.5,7.5s7.5-3.358,7.5-7.5V348.358l14.291,12.195c2.648,2.26,5.988,3.475,9.417,3.475    c0.752,0,1.509-0.059,2.263-0.177c4.194-0.66,7.876-3.111,10.103-6.726l22.554-36.61l31.916,13.932    c2.02,0.882,3.912,1.968,5.691,3.194l-20.927,25.113c-8.462,10.154-13.123,23.027-13.123,36.245v73.436c0,4.142,3.358,7.5,7.5,7.5    c4.142,0,7.5-3.358,7.5-7.5v-73.436c0-9.716,3.426-19.178,9.646-26.643l19.685-23.622c3.29,5.623,5.04,12.156,4.755,18.889    l-4.429,104.494c-0.175,4.138,3.037,7.635,7.176,7.811c0.108,0.005,0.215,0.007,0.323,0.007c3.996,0,7.317-3.152,7.488-7.183    l4.429-104.493C268.42,347.946,256.479,328.833,237.845,320.699z M133.801,47.063c15.956,0,29.418,10.179,33.399,23.971    c-10.354-3.908-21.62-6.057-33.399-6.057c-11.779,0-23.045,2.149-33.399,6.057C104.383,57.242,117.844,47.063,133.801,47.063z     M72.246,217.2c-1.322-7.203-8.001-12.435-15.187-11.903c-0.637,0.045-1.295-0.009-1.959-0.167    c-2.86-0.677-5.017-3.803-5.017-7.271v-5.386c0-3.479,2.325-6.613,5.292-7.134c2.504-0.44,4.901,0.48,6.417,2.457    c1.377,1.796,3.214,3.08,5.313,3.714c3.071,0.928,6.46,0.383,9.062-1.456c4.619-3.26,8.703-7.234,12.139-11.81    c2.487-3.312,1.818-8.014-1.494-10.5c-3.313-2.487-8.014-1.818-10.501,1.494c-1.701,2.265-3.616,4.324-5.722,6.153    c-3.209-2.744-7.144-4.462-11.318-4.983c-1.437-5.649-2.172-11.426-2.172-17.237c0-40.358,34.408-73.193,76.702-73.193    c42.293,0,76.701,32.834,76.701,73.193c0,5.8-0.731,11.565-2.163,17.204c-1.974,0.157-3.98,0.48-5.837,0.962l-5.638-4.636    c-2.833-2.33-6.399-3.496-10.008-3.281c-11.024,0.651-67.482,2.142-96.448-32.524c-2.656-3.178-7.385-3.602-10.564-0.946    c-3.179,2.656-3.602,7.386-0.946,10.564c14.286,17.097,35.239,28.658,62.276,34.362c20.701,4.367,39.103,3.943,46.313,3.532    l8.796,7.233c2.421,1.991,5.816,2.272,8.527,0.694c1.272-0.693,5.532-1.355,7.391-0.984c3.033,0.603,5.319,3.629,5.319,7.04v5.468    c0,3.469-2.157,6.595-5.017,7.271c-0.663,0.157-1.322,0.214-1.959,0.166c-7.182-0.522-13.865,4.701-15.188,11.903    c-5.456,29.705-31.343,51.265-61.554,51.265C103.59,268.464,77.702,246.904,72.246,217.2z M102.702,348.776L80.144,312.16    L91.7,300.604l31.058,31.058L102.702,348.776z M133.801,321.491l-27.584-27.584v-15.516c8.611,3.278,17.916,5.073,27.584,5.073    c9.668,0,18.973-1.795,27.584-5.072v15.515L133.801,321.491z M164.9,348.776l-20.056-17.114l31.058-31.058l11.556,11.556    L164.9,348.776z"
   id="path14" />
	</g>
</g>
<g
   id="g24">
	<g
   id="g22">
		<path
   d="M105.734,394.766h-21.05c-4.142,0-7.5,3.358-7.5,7.5c0,4.142,3.358,7.5,7.5,7.5h21.05c4.142,0,7.5-3.358,7.5-7.5    C113.234,398.124,109.876,394.766,105.734,394.766z"
   id="path20" />
	</g>
</g>
<g
   id="g26">
</g>
<g
   id="g28">
</g>
<g
   id="g30">
</g>
<g
   id="g32">
</g>
<g
   id="g34">
</g>
<g
   id="g36">
</g>
<g
   id="g38">
</g>
<g
   id="g40">
</g>
<g
   id="g42">
</g>
<g
   id="g44">
</g>
<g
   id="g46">
</g>
<g
   id="g48">
</g>
<g
   id="g50">
</g>
<g
   id="g52">
</g>
<g
   id="g54">
</g>
<path
   style="fill:#ececec;stroke-width:2.16948295"
   d="m 332.253,476.50071 c -2.01509,-2.42804 -2.03095,-17.86459 -0.0706,-68.75213 1.39032,-36.09161 2.93224,-68.20703 3.42648,-71.36757 0.86689,-5.54362 0.59733,-5.70607 -7.63537,-4.60185 -12.15052,1.62974 -17.01017,-2.39669 -34.68117,-28.73491 -8.39389,-12.51086 -15.97198,-22.73436 -16.8402,-22.71887 -0.86823,0.0152 -12.29031,4.34828 -25.38242,9.62839 -23.92311,9.64832 -29.34852,9.99474 -29.34852,1.87389 0,-3.1994 16.83001,-11.60309 40.13544,-20.04071 9.53544,-3.45228 16.64341,-8.22245 26.57616,-17.83534 12.00617,-11.61953 13.55927,-14.07803 13.55927,-21.46375 0,-4.58763 -1.01582,-8.96896 -2.25739,-9.73629 -3.90879,-2.41577 -12.43916,-17.33271 -15.22044,-26.61579 -2.12568,-7.09489 -3.93384,-9.1959 -8.84183,-10.27387 -7.22418,-1.5867 -14.01987,-9.42947 -16.00598,-18.47219 -1.756,-7.99499 2.26224,-20.6451 7.78697,-24.51477 3.74799,-2.62519 3.95504,-4.11383 2.00346,-14.40448 -3.73489,-19.69399 -2.76258,-44.620295 2.11334,-54.177877 4.75054,-9.311828 13.31726,-16.343522 22.81573,-18.727484 3.42696,-0.860114 9.54235,-3.811096 13.58975,-6.557739 34.22898,-23.228412 94.05384,-19.98433 120.5766,6.538426 16.90603,16.906045 25.23379,45.551354 21.45093,73.785714 -1.46937,10.967 -1.25518,15.33951 0.8897,18.16288 1.55374,2.04522 2.85602,8.88835 2.89398,15.20697 0.056,9.3075 -0.92515,12.48254 -5.16788,16.72527 -2.88027,2.88028 -7.62879,5.83721 -10.55228,6.57095 -3.81037,0.95634 -6.02438,3.70038 -7.81927,9.6912 -1.37712,4.59641 -5.90313,13.40842 -10.0578,19.58224 -11.44819,17.01194 -10.575,22.63806 5.99989,38.65809 11.83848,11.44218 16.53827,14.24402 37.13515,22.13864 27.06744,10.37475 38.25822,19.00962 43.9493,33.91149 3.51762,9.21076 3.58949,14.97631 1.05973,85.0143 -1.49261,41.32338 -3.17083,76.75171 -3.72937,78.7296 -1.26385,4.47545 -5.74058,6.33795 -9.56006,3.97738 -2.39949,-1.48297 -2.45273,-13.00395 -0.3123,-67.59562 1.4191,-36.19438 2.5652,-72.12548 2.54686,-79.84691 l -0.0333,-14.03897 -14.26409,14.03897 c -7.84524,7.72143 -15.65538,16.67521 -17.35586,19.8973 -2.45076,4.64376 -3.09865,17.91262 -3.12499,63.99975 -0.0174,31.97777 -0.86747,59.45781 -1.88708,61.06672 -1.01962,1.60893 -3.6894,2.57222 -5.93287,2.14067 -3.85669,-0.7419 -4.11182,-4.03455 -4.68133,-60.41663 -0.72408,-71.68471 -0.92682,-70.84262 23.11335,-96.00518 l 16.45919,-17.22765 -4.66245,-3.77542 c -4.79933,-3.88626 -47.98417,-20.89448 -49.24404,-19.39461 -0.3876,0.46145 -7.67848,11.29852 -16.20196,24.08237 -8.52348,12.78385 -17.5924,24.36466 -20.15315,25.73512 -2.56075,1.37048 -8.47087,1.98009 -13.13361,1.35467 l -8.4777,-1.13709 1.17898,14.45266 c 2.52785,30.98805 5.93434,128.15025 4.5703,130.35731 -1.98432,3.21071 -9.78618,2.94019 -10.95039,-0.37968 -0.52304,-1.49152 -2.20087,-31.99987 -3.7285,-67.79634 l -2.77752,-65.08449 -9.2203,-0.66712 -9.2203,-0.66711 10e-4,11.51453 c 0.002,18.29831 -4.42742,115.16941 -5.50006,120.29175 -1.23619,5.90336 -6.42364,7.96854 -9.79924,3.90119 z m 32.65404,-154.27013 c 0,-3.18739 -1.62286,-7.58849 -3.60636,-9.78023 -3.36998,-3.72379 -3.86769,-3.7485 -7.59319,-0.37697 -2.19276,1.98443 -3.98683,6.38553 -3.98683,9.78025 0,5.60761 0.69456,6.1722 7.59319,6.1722 6.7829,0 7.59319,-0.61843 7.59319,-5.79525 z m -27.72961,-13.18773 10.07324,-10.30504 -21.90752,-18.98298 c -12.04913,-10.44064 -23.03841,-18.98297 -24.42063,-18.98297 -1.38221,0 -4.7844,2.41767 -7.56042,5.37261 l -5.04731,5.37262 15.81294,23.9154 c 9.52033,14.39849 17.23828,23.91541 19.39471,23.91541 1.96997,0 8.11471,-4.63727 13.65499,-10.30505 z m 73.32253,-13.61036 15.81295,-23.9154 -5.04731,-5.37262 c -2.77602,-2.95494 -6.29999,-5.37261 -7.83103,-5.37261 -2.15133,0 -28.15186,21.38294 -45.17382,37.15113 -2.98229,2.76262 15.96374,21.42491 21.75065,21.42491 3.54875,0 8.48667,-5.76382 20.48856,-23.91541 z m -30.50634,-24.53854 c 18.39614,-15.93206 19.62515,-17.5209 19.62515,-25.37139 v -8.37497 l -12.47453,5.78495 c -10.23269,4.74531 -15.5936,5.78493 -29.83039,5.78493 -14.23679,0 -19.5977,-1.03962 -29.83039,-5.78493 l -12.47453,-5.78495 v 8.40661 c 0,7.89116 1.23045,9.48319 20.06772,25.96471 11.03724,9.65695 21.24314,17.29113 22.67977,16.96479 1.43663,-0.32631 11.44338,-8.24171 22.2372,-17.58975 z m -4.98796,-37.21925 c 21.28363,-6.32056 35.09841,-20.16493 42.98986,-43.08194 4.58387,-13.31173 6.63481,-15.43855 16.99858,-17.62751 5.6472,-1.19276 6.03934,-1.94714 5.4237,-10.43426 -0.57584,-7.9386 -1.38092,-9.22887 -6.08731,-9.7559 -13.28606,-1.4878 -15.41811,-2.82776 -19.4443,-12.22048 l -4.04544,-9.43762 -9.40759,1.81794 c -22.95091,4.43508 -59.30855,0.65689 -75.81398,-7.8784 -9.84759,-5.09239 -23.62715,-18.31797 -23.62715,-22.67727 0,-6.984338 6.78841,-7.066754 13.92415,-0.16905 3.67727,3.5546 12.54354,9.14314 19.70284,12.41896 11.47257,5.24942 15.71947,5.97117 35.79647,6.08354 12.52876,0.0701 28.33867,-0.66816 35.13313,-1.64061 l 12.35357,-1.76811 4.72709,10.98841 c 3.10171,7.21012 6.03079,10.98841 8.51867,10.98841 8.29233,0 7.23833,-42.199802 -1.48783,-59.568635 -1.82389,-3.630329 -6.82979,-10.267881 -11.12423,-14.750118 -20.03765,-20.913902 -69.14778,-24.887055 -99.64248,-8.061365 -4.47629,2.469824 -10.57937,5.844058 -13.56241,7.498295 -2.98304,1.654235 -8.64262,4.184746 -12.57684,5.623357 -9.98649,3.651715 -13.45696,11.66654 -13.45696,31.077996 0,32.69167 7.50836,48.45079 18.26811,38.34252 10.62914,-9.98556 18.44808,-1.53153 8.37552,9.05582 -9.2534,9.72633 -13.07603,11.16733 -19.11959,7.20744 -7.05082,-4.61987 -11.24164,-4.2842 -14.14063,1.13262 -4.26312,7.96572 -0.84057,14.56161 8.91962,17.18976 4.82231,1.29851 9.17214,3.5301 9.66629,4.95908 12.37456,35.78445 21.87814,46.72156 47.69146,54.88524 11.75438,3.71742 22.0588,3.65917 35.04768,-0.19812 z"
   id="path71"
   inkscape:connector-curvature="0" /><path
   style="fill:#ececec;stroke-width:2.16948295"
   d="m 282.46669,372.50023 c -2.1547,-2.59626 -2.1547,-3.91219 0,-6.50845 3.89278,-4.69052 36.47525,-4.66701 38.27675,0.0276 0.69265,1.80502 0.0543,4.73382 -1.41847,6.50845 -3.78798,4.56423 -33.06559,4.54228 -36.85828,-0.0276 z"
   id="path73"
   inkscape:connector-curvature="0" /><path
   style="fill:#ececec;stroke-width:2.16948295"
   d="m 8.0898695,476.38827 c -2.25259,-2.2526 -3.3264687,-7.6184 -3.3464926,-16.72132 -0.016206,-7.37236 -0.9731704,-32.08528 -2.126563,-54.91762 -1.78450065,-35.32558 -1.6006018,-43.18512 1.2337761,-52.7295 4.8605288,-16.36718 15.259837,-25.63784 41.182152,-36.71262 16.772197,-7.16558 24.345263,-11.88393 34.044913,-21.21136 16.063071,-15.4467 16.290322,-19.81048 1.773539,-34.05635 -10.251636,-10.06032 -17.856802,-22.73835 -20.890285,-34.82471 -0.929956,-3.70524 -2.897822,-5.66311 -5.69201,-5.66311 -6.262141,0 -16.41883,-11.21334 -18.054639,-19.93295 -1.418677,-7.5622 3.295494,-23.45789 6.956223,-23.45565 0.955799,5.9e-4 1.737815,-10.00615 1.737815,-22.2372 0,-20.47667 0.538748,-23.35532 6.801116,-36.3399 6.513107,-13.50448 18.048906,-27.362673 28.452983,-34.181167 2.684735,-1.759488 4.902777,-5.28339 4.928982,-7.830895 0.146399,-14.231858 18.483611,-35.972007 33.968161,-40.271822 28.3073,-7.860492 56.4954,8.609881 62.51284,36.526405 1.10021,5.104178 5.53746,11.045836 14.32452,19.181098 8.47864,7.849732 15.09829,16.594031 19.81978,26.181151 6.57705,13.35495 7.08922,15.96595 7.08922,36.14072 0,17.0966 0.76015,22.58963 3.55546,25.69266 11.24178,12.47928 1.82211,40.52755 -13.6107,40.52755 -2.22552,0 -4.04717,1.22033 -4.04811,2.71185 -0.004,6.72966 -13.43847,29.64213 -22.52536,38.41766 -13.78797,13.31553 -13.46716,18.10154 2.2241,33.18042 9.35468,8.98958 17.39378,14.00404 34.10985,21.27627 25.87095,11.25504 36.53192,20.64938 41.17448,36.28257 2.6428,8.89928 2.81877,19.18445 1.0878,63.57694 -1.13579,29.12804 -2.49234,55.049 -3.01458,57.60213 -1.09847,5.37019 -5.51767,7.68377 -9.71813,5.08775 -2.41629,-1.49335 -2.51253,-11.48967 -0.56348,-58.53096 2.20087,-53.11953 1.34067,-71.85541 -3.28187,-71.48191 -0.83883,0.0677 -6.00615,5.68131 -11.48294,12.47453 -19.15725,23.762 -18.12213,19.96937 -19.33022,70.82438 l -1.08475,45.6621 h -5.4237 -5.42371 v -46.64388 c 0,-53.42929 -0.33995,-52.19418 21.49686,-78.10139 6.53735,-7.7559 11.20879,-14.77333 10.38098,-15.59426 -1.87465,-1.85916 -37.77121,-17.26972 -38.33254,-16.45636 -0.22514,0.32621 -5.1125,8.40326 -10.86081,17.94898 -16.73862,27.79637 -21.56426,30.05613 -37.06324,17.35587 -5.09657,-4.17626 -9.83439,-7.59319 -10.52849,-7.59319 -0.6941,0 -1.26199,29.18358 -1.26199,64.85237 0,55.07823 -0.481,65.03696 -3.19144,66.07705 -1.7553,0.67358 -4.6841,-0.26797 -6.50845,-2.09233 -2.82383,-2.82383 -3.31701,-12.66996 -3.31701,-66.2223 v -62.90529 l -9.44374,7.73844 c -15.61526,12.79552 -20.16283,10.84859 -36.119091,-15.46362 -6.3714,-10.50657 -11.765983,-19.36977 -11.987962,-19.69598 -0.554353,-0.81468 -36.454864,14.59989 -38.326807,16.45636 -0.827798,0.82093 3.843645,7.83836 10.380987,15.59426 21.836816,25.90721 21.496865,24.6721 21.496865,78.10139 v 46.64388 h -5.423708 -5.423707 l -1.084742,-45.6621 C 49.123903,380.1183 50.159033,383.91093 31.001777,360.14893 25.524991,353.35571 20.349414,347.74218 19.500493,347.6744 c -4.518931,-0.36078 -5.809092,18.36366 -3.878067,56.28333 3.006412,59.03712 2.813843,73.05012 -1.024108,74.52287 -1.755293,0.67358 -4.6840947,-0.26797 -6.5084485,-2.09233 z M 121.51485,333.94368 c 1.9039,-2.29406 -1.05332,-6.38086 -13.72585,-18.96883 l -16.152588,-16.04478 -6.457425,6.1866 c -7.354284,7.04586 -7.685818,5.78161 7.890354,30.08837 l 9.466399,14.7724 8.27618,-6.55488 c 4.55191,-3.60516 9.36822,-7.87067 10.70293,-9.47888 z m 57.59396,-5.91785 9.87145,-16.27112 -6.40281,-6.46042 -6.40281,-6.46042 -16.41528,16.22309 -16.41528,16.22309 10.37387,9.21184 c 12.04951,10.69979 11.03401,11.19835 25.39086,-12.46606 z m -29.58133,-20.00504 c 12.06392,-11.9567 13.61764,-14.45954 13.61764,-21.93627 v -8.43968 l -8.13556,1.83829 c -10.31036,2.32972 -31.72381,2.41747 -42.30492,0.17334 l -8.13556,-1.72544 v 8.17551 c 0,7.11894 1.74422,9.93536 13.4966,21.79312 7.42312,7.48971 14.4748,13.61765 15.67038,13.61765 1.19558,0 8.30172,-6.07346 15.79142,-13.49659 z m 12.5329,-45.64959 c 5.96608,-3.05298 13.96505,-8.81092 17.77549,-12.79542 7.21129,-7.54068 15.72145,-24.00031 15.80385,-30.56647 0.0701,-5.58612 7.91296,-12.47453 14.20298,-12.47453 6.96753,0 11.15824,-9.19521 7.67494,-16.84026 -1.90566,-4.1824 -3.74186,-4.94556 -10.88537,-4.52405 -5.3277,0.31435 -10.07039,-0.78403 -12.48082,-2.89051 -2.55826,-2.23565 -10.56499,-3.90327 -23.41314,-4.87643 -37.62914,-2.85012 -63.45931,-12.1803 -82.622407,-29.84423 -10.146303,-9.35253 -11.45411,-12.7008 -6.550435,-16.77049 2.405751,-1.99659 5.132765,-0.69506 13.233348,6.31595 19.734654,17.08021 41.544604,24.80332 77.024234,27.27499 11.33555,0.78969 22.77235,2.78748 25.4151,4.43955 10.73732,6.71222 13.6356,3.18011 13.6356,-16.61765 0,-19.26323 -6.95165,-35.40598 -21.52127,-49.97561 -16.09006,-16.090055 -31.47264,-22.260318 -55.49538,-22.260318 -24.02274,0 -39.405321,6.170263 -55.495374,22.260318 -15.188533,15.18853 -21.521272,30.53793 -21.521272,52.16364 0,14.62148 0.149586,15.02071 6.886983,18.38178 6.484867,3.23507 7.158055,3.18102 11.529611,-0.92585 5.514411,-5.18052 8.338803,-5.46596 11.878822,-1.2005 3.122699,3.76263 0.05823,9.08764 -9.603392,16.68747 -5.893043,4.63547 -6.375816,4.68044 -12.501959,1.16452 -8.720623,-5.00495 -12.193136,-4.59852 -15.09326,1.76656 -3.380831,7.42012 0.630198,16.25871 7.399055,16.30434 7.775429,0.0524 9.725501,2.31778 16.656728,19.34979 9.006709,22.13207 21.972359,34.51482 43.592938,41.63316 10.26614,3.38001 32.89798,0.74417 44.4744,-5.17975 z M 121.12252,67.215714 c 12.66411,-2.14499 31.7937,-0.444026 42.56497,3.784793 5.3733,2.109564 4.90299,-3.490418 -0.91422,-10.885808 -5.60401,-7.124348 -19.83293,-14.026367 -28.91617,-14.026367 -9.08324,0 -23.31216,6.902019 -28.91617,14.026367 -5.819741,7.398603 -6.291538,13.005627 -0.91422,10.864966 2.08813,-0.831264 9.78124,-2.525042 17.09581,-3.763951 z"
   id="path75"
   inkscape:connector-curvature="0" /><path
   style="fill:#ececec;stroke-width:2.16948295"
   d="m 79.347522,405.11465 c -2.618114,-6.8227 3.399209,-10.06335 17.43014,-9.38707 12.479958,0.60153 13.215128,0.93869 13.215128,6.06067 0,5.1874 -0.63932,5.45169 -14.673803,6.06588 -11.694636,0.5118 -14.937261,-0.0444 -15.971465,-2.73948 z"
   id="path77"
   inkscape:connector-curvature="0" /></svg>