<?xml version="1.0" encoding="UTF-8"?>
<svg width="102px" height="137px" viewBox="0 0 102 137" version="1.1" xmlns="http://www.w3.org/2000/svg" xmlns:xlink="http://www.w3.org/1999/xlink">
    <!-- Generator: Sketch 46 (44423) - http://www.bohemiancoding.com/sketch -->
    <title>Page 1</title>
    <desc>Created with Sketch.</desc>
    <defs></defs>
    <g id="Page-1" stroke="none" stroke-width="1" fill="none" fill-rule="evenodd">
        <g id="Desktop-Home-Copy-6" transform="translate(-459.000000, -299.000000)" fill="#FFFFFF">
            <g id="Group-4" transform="translate(410.000000, 225.000000)">
                <g id="Group" transform="translate(38.000000, 74.000000)">
                    <g id="Page-1" transform="translate(11.000000, 0.000000)">
                        <polygon id="Fill-1" points="51 18 34.0009148 18 34.0009148 35.0015682 16.9990852 35.0015682 16.9990852 52.0003921 16.9990852 68.9992159 34.0009148 68.9992159 34.0009148 86.0007841 16.9990852 86.0007841 16.9990852 103.002352 0 103.002352 0 119.998432 0 137 16.9990852 137 34.0009148 137 51 137 68.0018296 137 84.9981704 137 102 137 102 103.002352 84.9981704 103.002352 84.9981704 86.0007841 68.0018296 86.0007841 68.0018296 68.9992159 84.9981704 68.9992159 84.9981704 52.0003921 84.9981704 35.0015682 68.0018296 35.0015682 68.0018296 18"></polygon>
                        <polygon id="Fill-2" points="17 59 85 59 85 0 17 0"></polygon>
                        <polygon id="Fill-3" points="75 45 96 45 96 23 75 23"></polygon>
                        <polygon id="Fill-4" points="5 45 26 45 26 23 5 23"></polygon>
                    </g>
                </g>
            </g>
        </g>
    </g>
</svg>