<?xml version="1.0" encoding="UTF-8" standalone="no"?>
<!-- Generator: Adobe Illustrator 19.0.0, SVG Export Plug-In . SVG Version: 6.00 Build 0)  -->

<svg
   xmlns:dc="http://purl.org/dc/elements/1.1/"
   xmlns:cc="http://creativecommons.org/ns#"
   xmlns:rdf="http://www.w3.org/1999/02/22-rdf-syntax-ns#"
   xmlns:svg="http://www.w3.org/2000/svg"
   xmlns="http://www.w3.org/2000/svg"
   xmlns:sodipodi="http://sodipodi.sourceforge.net/DTD/sodipodi-0.dtd"
   xmlns:inkscape="http://www.inkscape.org/namespaces/inkscape"
   version="1.1"
   id="Layer_1"
   x="0px"
   y="0px"
   viewBox="0 0 512 512"
   style="enable-background:new 0 0 512 512;"
   xml:space="preserve"
   sodipodi:docname="plus.svg"
   inkscape:version="0.92.4 (5da689c313, 2019-01-14)"><metadata
   id="metadata47"><rdf:RDF><cc:Work
       rdf:about=""><dc:format>image/svg+xml</dc:format><dc:type
         rdf:resource="http://purl.org/dc/dcmitype/StillImage" /></cc:Work></rdf:RDF></metadata><defs
   id="defs45" /><sodipodi:namedview
   pagecolor="#ffffff"
   bordercolor="#666666"
   borderopacity="1"
   objecttolerance="10"
   gridtolerance="10"
   guidetolerance="10"
   inkscape:pageopacity="0"
   inkscape:pageshadow="2"
   inkscape:window-width="1366"
   inkscape:window-height="705"
   id="namedview43"
   showgrid="false"
   inkscape:zoom="0.4609375"
   inkscape:cx="256"
   inkscape:cy="256"
   inkscape:window-x="-8"
   inkscape:window-y="-8"
   inkscape:window-maximized="1"
   inkscape:current-layer="Layer_1" />
<g
   id="g10"
   transform="translate(-770.16949,-290.71186)">
	
</g>
<g
   id="g12">
</g>
<g
   id="g14">
</g>
<g
   id="g16">
</g>
<g
   id="g18">
</g>
<g
   id="g20">
</g>
<g
   id="g22">
</g>
<g
   id="g24">
</g>
<g
   id="g26">
</g>
<g
   id="g28">
</g>
<g
   id="g30">
</g>
<g
   id="g32">
</g>
<g
   id="g34">
</g>
<g
   id="g36">
</g>
<g
   id="g38">
</g>
<g
   id="g40">
</g>
<path
   style="fill:#d40000;stroke-width:2.16949153"
   d=""
   id="path51"
   inkscape:connector-curvature="0" /><path
   style="fill:#e6e6e6;stroke-width:2.16949153"
   d="m 253.05194,394.37162 c -3.97824,-2.90883 -4.25394,-6.73504 -4.9825,-69.14723 l -0.77124,-66.06799 -67.56775,-1.90363 c -66.15459,-1.86381 -67.58127,-1.99834 -68.21481,-6.43245 -1.4249,-9.97289 2.52725,-10.60709 71.2386,-11.43167 l 64.50127,-0.77405 0.8402,-64.577 c 0.89365,-68.68553 1.5224,-72.61157 11.40258,-71.19992 6.37732,0.91118 7.36563,11.20419 7.593,79.07908 l 0.19006,56.7371 66.34538,0.75443 c 62.69787,0.71294 66.51457,0.98594 69.42377,4.96568 3.5921,4.91414 3.6656,5.60313 1.0397,9.75294 -1.6229,2.56477 -13.8629,3.28611 -69.11403,4.07308 l -67.14188,0.95633 -0.95633,67.14188 c -0.78697,55.25109 -1.50831,67.49115 -4.07308,69.11404 -4.14996,2.62595 -4.83894,2.55242 -9.75294,-1.04062 z"
   id="path32"
   inkscape:connector-curvature="0" /><path
   style="fill:#f2f2f2;stroke-width:2.16949153"
   d=""
   id="path34"
   inkscape:connector-curvature="0" /><path
   style="fill:#cccccc;stroke-width:2.16949153"
   d=""
   id="path36"
   inkscape:connector-curvature="0" /><path
   style="fill:#cccccc;stroke-width:2.16949153"
   d="M 206.22054,499.49453 C 185.84206,495.19614 157.80247,483.96661 133.85763,470.51401 75.867944,437.93447 37.539304,390.01058 15.561464,322.60339 8.9233845,302.24408 8.4235545,298.52829 7.4423845,262.24573 c -1.46271,-54.08902 2.51202,-75.736 21.3077795,-116.04542 17.26291,-37.02208 46.18639,-72.176633 80.912156,-98.343273 20.48609,-15.43674 53.89149,-32.06033 80.60209,-40.1101697 17.48657,-5.26997 23.76981,-5.98018 60.17262,-6.80142003 47.73083,-1.0768 64.43303,1.45589003 98.00113,14.86074973 71.1096,28.3964 123.5057,82.900601 149.6428,155.663503 16.1374,44.92487 16.136,114.17543 0,159.08095 -8.2897,23.06528 -24.8587,55.14952 -36.2292,70.15444 -22.0565,29.10668 -61.6678,62.50713 -92.6012,78.08191 -17.923,9.02413 -45.0411,17.59121 -68.7947,21.73351 -25.6339,4.47017 -70.49063,3.9818 -94.23224,-1.02598 z m 115.29812,-20.20005 c 50.404,-15.28309 94.5014,-45.12368 123.7801,-83.76168 13.2147,-17.43893 34.7436,-59.47385 41.4904,-81.00927 4.481,-14.30317 4.9493,-20.06029 4.9898,-61.34387 0.04,-40.95853 -0.454,-47.312 -4.8947,-62.91525 -6.3367,-22.26563 -25.5957,-61.07292 -39.353,-79.29727 -24.3607,-32.270883 -60.4412,-60.876433 -96.2633,-76.320183 -33.688,-14.52369 -51.3688,-17.86678 -93.74932,-17.72617 -32.6559,0.10835 -39.29379,0.76943 -57.93803,5.77015 C 98.891594,49.697557 27.544384,137.52088 22.750354,240.35636 c -3.14118,67.38072 18.88653,125.54158 66.21147,174.82149 28.123006,29.28473 56.958326,47.45097 96.173596,60.5893 29.36065,9.83671 34.16959,10.43942 77.80695,9.7515 35.83299,-0.5649 42.11249,-1.23212 58.57629,-6.22417 z"
   id="path38"
   inkscape:connector-curvature="0"
   inkscape:transform-center-x="6.5084746" /></svg>