<?xml version="1.0" encoding="UTF-8" standalone="no"?>
<svg
   xmlns:dc="http://purl.org/dc/elements/1.1/"
   xmlns:cc="http://creativecommons.org/ns#"
   xmlns:rdf="http://www.w3.org/1999/02/22-rdf-syntax-ns#"
   xmlns:svg="http://www.w3.org/2000/svg"
   xmlns="http://www.w3.org/2000/svg"
   xmlns:sodipodi="http://sodipodi.sourceforge.net/DTD/sodipodi-0.dtd"
   xmlns:inkscape="http://www.inkscape.org/namespaces/inkscape"
   height="512pt"
   viewBox="0 0 512 512"
   width="512pt"
   version="1.1"
   id="svg4"
   sodipodi:docname="x_button-trans.svg"
   inkscape:version="0.92.4 (5da689c313, 2019-01-14)">
  <metadata
     id="metadata10">
    <rdf:RDF>
      <cc:Work
         rdf:about="">
        <dc:format>image/svg+xml</dc:format>
        <dc:type
           rdf:resource="http://purl.org/dc/dcmitype/StillImage" />
      </cc:Work>
    </rdf:RDF>
  </metadata>
  <defs
     id="defs8" />
  <sodipodi:namedview
     pagecolor="#ffffff"
     bordercolor="#666666"
     borderopacity="1"
     objecttolerance="10"
     gridtolerance="10"
     guidetolerance="10"
     inkscape:pageopacity="0"
     inkscape:pageshadow="2"
     inkscape:window-width="1366"
     inkscape:window-height="705"
     id="namedview6"
     showgrid="false"
     inkscape:zoom="0.34570313"
     inkscape:cx="341.33333"
     inkscape:cy="341.33333"
     inkscape:window-x="-8"
     inkscape:window-y="-8"
     inkscape:window-maximized="1"
     inkscape:current-layer="svg4" />
  <path
     d="m256 0c-141.164062 0-256 114.835938-256 256s114.835938 256 256 256 256-114.835938 256-256-114.835938-256-256-256zm94.273438 320.105469c8.339843 8.34375 8.339843 21.824219 0 30.167969-4.160157 4.160156-9.621094 6.25-15.085938 6.25-5.460938 0-10.921875-2.089844-15.082031-6.25l-64.105469-64.109376-64.105469 64.109376c-4.160156 4.160156-9.621093 6.25-15.082031 6.25-5.464844 0-10.925781-2.089844-15.085938-6.25-8.339843-8.34375-8.339843-21.824219 0-30.167969l64.109376-64.105469-64.109376-64.105469c-8.339843-8.34375-8.339843-21.824219 0-30.167969 8.34375-8.339843 21.824219-8.339843 30.167969 0l64.105469 64.109376 64.105469-64.109376c8.34375-8.339843 21.824219-8.339843 30.167969 0 8.339843 8.34375 8.339843 21.824219 0 30.167969l-64.109376 64.105469zm0 0"
     id="path2"
     style="fill:#800000" />
  <path
     style="fill:#800000;stroke-width:2.89265537"
     d="M 280.16892,675.73355 C 145.36268,651.37774 37.233984,544.72634 7.7095807,406.99661 1.4945643,378.0039 0.62975669,314.06332 6.0468252,284.05876 31.529014,142.91571 142.91572,31.52901 284.05876,6.046822 314.00058,0.64108083 377.98736,1.4960902 406.99661,7.6895523 528.4593,33.621766 625.21509,119.19819 664.12498,235.10874 c 27.40071,81.62525 20.04593,180.45759 -19.24915,258.66753 -31.01346,61.72684 -89.37272,120.0861 -151.09956,151.09956 -62.70157,31.50321 -144.57295,43.33033 -213.60735,30.85772 z M 245.59967,474.97401 c 2.45167,0 25.16058,-20.45029 50.46424,-45.44509 l 46.00668,-45.44506 44.03364,43.85714 c 24.2185,24.12144 47.52535,45.15692 51.79303,46.74551 8.21554,3.05817 22.87778,0.28464 30.07595,-5.68939 6.32352,-5.24803 9.98793,-22.30049 6.69401,-31.15066 -1.578,-4.23974 -22.60477,-27.52373 -46.72622,-51.74223 l -43.85714,-44.03365 45.00813,-45.63866 c 31.91576,-32.36289 45.47135,-48.12044 46.60053,-54.17026 4.19698,-22.48618 -17.00352,-41.62481 -38.53807,-34.79002 -3.57682,1.13524 -26.50146,22.3644 -50.94362,47.17591 l -44.44033,45.11184 -45.73285,-45.66585 c -41.41062,-41.34993 -46.86405,-45.81758 -57.70166,-47.27121 -10.89131,-1.46083 -12.9208,-0.65334 -22.5439,8.96976 -9.62309,9.62309 -10.43058,11.65258 -8.96975,22.5439 1.45366,10.83784 5.92189,16.29167 47.28706,57.71754 l 45.6817,45.74873 -34.62323,34.33851 c -62.97808,62.46012 -64.95695,65.4677 -55.5121,84.36996 4.01433,8.03401 21.641,18.18969 27.63392,15.92138 2.11882,-0.80196 5.85831,-1.4581 8.30998,-1.4581 z"
     id="path7"
     inkscape:connector-curvature="0"
     transform="scale(0.74999998)" />
  <path
     style="fill:#800000;stroke-width:2.89265537"
     d="m 224.68921,471.00168 c -4.81145,-2.13245 -10.34365,-7.37907 -12.29379,-11.65916 -7.86795,-17.26827 -6.11464,-20.10539 43.34834,-70.14418 l 46.89403,-47.43994 -43.69082,-44.03627 c -45.59386,-45.95433 -50.09725,-51.736 -50.09725,-64.31719 0,-10.0955 14.45973,-24.55522 24.55522,-24.55522 12.58215,0 18.36283,4.50335 64.35411,50.13409 l 44.07316,43.72768 47.2437,-46.93089 c 50.5531,-50.21838 53.39816,-51.91902 71.33754,-42.64221 10.05457,5.19942 16.03398,20.52686 11.98801,30.72969 -1.51041,3.80883 -22.99363,27.0519 -47.7405,51.65128 l -44.99431,44.72614 44.65789,45.20975 c 24.56183,24.86536 46.00811,48.76114 47.6584,53.10172 6.20245,16.31366 -6.58493,34.68145 -24.14469,34.68145 -12.24484,0 -21.71114,-7.5916 -69.73135,-55.92172 l -37.56768,-37.81013 -46.31933,46.12189 c -27.12284,27.00724 -49.31639,46.77018 -53.55096,47.68615 -3.9774,0.86034 -11.16828,-0.18048 -15.97972,-2.31293 z"
     id="path9"
     inkscape:connector-curvature="0"
     transform="scale(0.74999998)" />
  <path
     style="fill:#f2f2f2;stroke-width:2.89265537"
     d="M 294.18305,678.30793 C 185.81726,663.60045 84.339806,589.81879 36.745047,491.13134 11.242129,438.2512 2.7050119,401.0465 2.5046191,341.91186 2.2583167,269.22967 19.626888,212.07012 60.955846,149.55028 78.1443,123.54867 123.54867,78.144296 149.55028,60.955843 255.28056,-8.9375245 381.04304,-17.858194 490.88362,36.744153 582.22907,82.152475 647.22707,162.84914 671.91843,261.50353 c 8.63029,34.48237 10.7546,101.86096 4.31347,136.81511 -26.45953,143.58846 -133.50941,251.22055 -276.06331,277.56469 -22.3604,4.13222 -83.15609,5.52303 -105.98554,2.4246 z m 1.85194,-249.01158 46.05292,-44.88183 45.83928,45.27974 c 45.45949,44.9046 45.94682,45.27975 58.81697,45.27975 18.14797,0 28.22985,-10.08189 28.22985,-28.22986 0,-12.87014 -0.37515,-13.35747 -45.27974,-58.81697 l -45.27975,-45.83927 45.27975,-46.46125 c 43.28468,-44.4141 45.27974,-46.97543 45.27974,-58.13129 0,-14.67673 -3.68414,-21.62521 -14.40536,-27.16939 -18.11384,-9.36702 -20.86849,-7.72709 -71.49273,42.56196 l -47.24372,46.9309 -44.07316,-43.72768 c -46.03912,-45.67822 -51.76479,-50.1341 -64.42085,-50.1341 -10.37588,0 -27.38113,17.00525 -27.38113,27.38113 0,12.65601 4.45588,18.38173 50.1324,64.41914 l 43.72597,44.07148 -45.25807,45.60084 c -29.59979,29.824 -45.99246,48.54321 -47.38072,54.10529 -4.65065,18.63293 15.47591,37.86758 35.59845,34.02093 4.28981,-0.82007 25.84769,-19.54443 53.2599,-46.25952 z"
     id="path11"
     inkscape:connector-curvature="0"
     transform="scale(0.74999998)" />
</svg>
