<?xml version="1.0" encoding="UTF-8" standalone="no"?>
<!-- Generator: Adobe Illustrator 19.0.0, SVG Export Plug-In . SVG Version: 6.00 Build 0)  -->

<svg
   xmlns:dc="http://purl.org/dc/elements/1.1/"
   xmlns:cc="http://creativecommons.org/ns#"
   xmlns:rdf="http://www.w3.org/1999/02/22-rdf-syntax-ns#"
   xmlns:svg="http://www.w3.org/2000/svg"
   xmlns="http://www.w3.org/2000/svg"
   xmlns:sodipodi="http://sodipodi.sourceforge.net/DTD/sodipodi-0.dtd"
   xmlns:inkscape="http://www.inkscape.org/namespaces/inkscape"
   version="1.1"
   id="Capa_1"
   x="0px"
   y="0px"
   viewBox="0 0 512 512"
   style="enable-background:new 0 0 512 512;"
   xml:space="preserve"
   sodipodi:docname="x_button.svg"
   inkscape:version="0.92.4 (5da689c313, 2019-01-14)"><metadata
   id="metadata49"><rdf:RDF><cc:Work
       rdf:about=""><dc:format>image/svg+xml</dc:format><dc:type
         rdf:resource="http://purl.org/dc/dcmitype/StillImage" /></cc:Work></rdf:RDF></metadata><defs
   id="defs47" /><sodipodi:namedview
   pagecolor="#ffffff"
   bordercolor="#666666"
   borderopacity="1"
   objecttolerance="10"
   gridtolerance="10"
   guidetolerance="10"
   inkscape:pageopacity="0"
   inkscape:pageshadow="2"
   inkscape:window-width="1366"
   inkscape:window-height="705"
   id="namedview45"
   showgrid="false"
   inkscape:zoom="0.4609375"
   inkscape:cx="256"
   inkscape:cy="256"
   inkscape:window-x="-8"
   inkscape:window-y="-8"
   inkscape:window-maximized="1"
   inkscape:current-layer="Capa_1" />
<g
   id="g6">
	<g
   id="g4">
		<path
   d="M256,0C114.508,0,0,114.497,0,256c0,141.493,114.497,256,256,256c141.492,0,256-114.497,256-256    C512,114.507,397.503,0,256,0z M256,472c-119.384,0-216-96.607-216-216c0-119.385,96.607-216,216-216    c119.384,0,216,96.607,216,216C472,375.385,375.393,472,256,472z"
   id="path2" />
	</g>
</g>
<g
   id="g12">
	<g
   id="g10">
		<path
   d="M343.586,315.302L284.284,256l59.302-59.302c7.81-7.81,7.811-20.473,0.001-28.284c-7.812-7.811-20.475-7.81-28.284,0    L256,227.716l-59.303-59.302c-7.809-7.811-20.474-7.811-28.284,0c-7.81,7.811-7.81,20.474,0.001,28.284L227.716,256    l-59.302,59.302c-7.811,7.811-7.812,20.474-0.001,28.284c7.813,7.812,20.476,7.809,28.284,0L256,284.284l59.303,59.302    c7.808,7.81,20.473,7.811,28.284,0C351.398,335.775,351.397,323.112,343.586,315.302z"
   id="path8" />
	</g>
</g>
<g
   id="g14">
</g>
<g
   id="g16">
</g>
<g
   id="g18">
</g>
<g
   id="g20">
</g>
<g
   id="g22">
</g>
<g
   id="g24">
</g>
<g
   id="g26">
</g>
<g
   id="g28">
</g>
<g
   id="g30">
</g>
<g
   id="g32">
</g>
<g
   id="g34">
</g>
<g
   id="g36">
</g>
<g
   id="g38">
</g>
<g
   id="g40">
</g>
<g
   id="g42">
</g>
<path
   style="fill:#ececec;stroke-width:2.16949153"
   d="m 168.57014,340.64919 c -9.77356,-11.61521 -7.34474,-16.02675 28.72919,-52.1818 l 31.8948,-31.9665 -31.76755,-32.0335 c -18.68861,-18.84506 -32.36521,-34.42393 -33.21923,-37.83964 -3.11749,-12.46876 9.95164,-25.53789 22.4204,-22.4204 3.41571,0.85402 18.99458,14.53062 37.83964,33.21923 l 32.0335,31.76755 31.9665,-31.8948 c 36.15505,-36.07393 40.56659,-38.50275 52.1818,-28.72919 5.45148,4.58712 6.90335,7.48516 6.90335,13.77959 0,7.37119 -2.36644,10.33302 -31.45762,39.3723 -17.3017,17.27083 -31.45763,32.34982 -31.45763,33.50887 0,1.15906 14.15593,16.37715 31.45763,33.81798 29.17797,29.41262 31.45762,32.29552 31.45762,39.78202 0,11.00507 -7.71657,18.72164 -18.72164,18.72164 -7.4865,0 -10.3694,-2.27965 -39.78202,-31.45762 -17.44083,-17.3017 -32.65892,-31.45763 -33.81798,-31.45763 -1.15905,0 -16.23804,14.15593 -33.50887,31.45763 -29.03928,29.09118 -32.00111,31.45762 -39.3723,31.45762 -6.29443,0 -9.19247,-1.45187 -13.77959,-6.90335 z"
   id="path51"
   inkscape:connector-curvature="0" /><path
   style="fill:#f2f2f2;stroke-width:2.16949153"
   d="M 211.84999,507.09422 C 113.36998,489.20446 33.633664,415.39154 9.1345354,319.43795 -20.127616,204.82942 33.690928,84.374853 138.29909,30.346852 196.78138,0.14193386 260.1162,-6.7017737 323.69679,10.313514 c 87.49304,23.414677 157.71505,95.807576 180.24203,185.814136 6.47272,25.86177 8.06595,76.39572 3.2351,102.61133 -19.668,106.73282 -98.26145,186.77125 -203.63051,207.37437 -24.83545,4.85614 -67.82887,5.31605 -91.69342,0.98087 z m 97.96846,-41.22774 C 441.65725,432.92099 510.7774,283.45923 450.83362,160.94279 428.01662,114.30817 385.60868,74.294255 339.08473,55.502397 309.20313,43.43268 294.72351,40.854252 256.4339,40.784519 c -30.60359,-0.05574 -38.47181,0.654431 -54.23729,4.895318 -20.51063,5.51733 -52.7238,19.986552 -68.72562,30.869559 -15.01338,10.210761 -42.960543,37.731974 -54.116177,53.291374 -12.899884,17.99221 -27.672544,49.8998 -33.499499,72.35584 -7.062465,27.21749 -8.141765,68.36454 -2.503881,95.45763 14.172071,68.1045 56.774207,123.58237 117.591357,153.13119 46.21832,22.4558 98.26541,27.72814 148.87566,15.08105 z"
   id="path53"
   inkscape:connector-curvature="0" /></svg>